<svg width="77" height="54" viewBox="0 0 77 54" fill="none" xmlns="http://www.w3.org/2000/svg">
<path d="M0 27.6104C4.9514 22.3933 8.95229 17.8224 13.3122 13.6718C19.1469 8.11847 27.252 7.50376 33.8746 11.8934C32.8543 12.3321 32.0149 12.6894 31.1754 13.0545C22.856 16.6718 20.3454 27.0903 26.0071 34.4956C33.3967 44.1575 41.4683 47.3151 55 45.4972C49.5114 51.6627 43.16 54.153 35.7885 53.9928C29.6645 53.8588 24.2946 51.5602 19.7074 47.2757C18.9868 46.6032 18.2765 45.9202 17.5791 45.224C11.827 39.4658 6.08012 33.7023 0 27.6104Z" fill="black"/>
<path d="M44.4197 40.6592C47.2105 38.5202 50.1988 36.9282 52.2476 34.508C56.0387 30.0287 55.6791 23.2531 51.6904 18.5984C44.3285 10.0038 35.5915 4.94138 23 8.69042C26.8291 4.08991 30.99 1.85545 35.6852 0.787245C42.6596 -0.799582 49.6923 -0.19841 55.1903 4.54401C62.7042 11.0229 69.5089 18.3559 77 25.6992C71.9123 30.6583 67.5741 35.6252 62.5066 39.6297C56.9073 44.0547 50.5154 43.8277 44.4197 40.6592Z" fill="#D01110"/>
<path d="M49.0572 35.4433C49.0572 35.4904 49.0572 35.5341 49.0572 35.5811C48.9833 35.6786 48.9161 35.6853 48.8186 35.6046C48.7077 35.5105 48.6069 35.4064 48.5028 35.3089C48.2306 35.0502 47.955 34.8015 47.6828 34.5461C47.3199 34.2067 46.9604 33.8707 46.5907 33.538C46.4496 33.4103 46.3118 33.2793 46.174 33.1482C45.7708 32.7719 45.3642 32.3955 44.9609 32.0191C44.6955 31.7738 44.43 31.5285 44.1679 31.2798C43.9259 31.0513 43.684 30.8161 43.4051 30.6178C43.5832 31.2362 43.7579 31.8511 43.9259 32.4661C44.1074 33.118 44.2956 33.7699 44.477 34.4251C44.514 34.5629 44.5207 34.5663 44.6585 34.5293C44.84 34.4823 45.0114 34.4083 45.1995 34.3848C45.2936 34.3747 45.3843 34.3781 45.4684 34.4117C45.6028 34.4688 45.7405 34.5024 45.8817 34.5361C46.2614 34.6301 46.5706 35.0233 46.5874 35.4265C46.5941 35.5509 46.5907 35.6785 46.5638 35.8029C46.5336 35.944 46.5739 36.0079 46.7083 36.0549C46.8932 36.1188 47.0276 36.2464 47.1485 36.3909C47.209 36.4649 47.2661 36.5388 47.3233 36.6161C47.3972 36.7102 47.4846 36.7707 47.6123 36.774C47.7366 36.774 47.8105 36.8412 47.8341 36.9488C47.8542 37.0496 47.8072 37.1672 47.6997 37.1974C47.5619 37.2378 47.5316 37.3352 47.5081 37.4495C47.4611 37.6578 47.3972 37.8594 47.2561 38.0308C47.2124 38.0846 47.1653 38.135 47.1049 38.1686C47.0141 38.2224 46.9805 38.2963 46.9772 38.4038C46.9704 38.592 46.9167 38.7701 46.8058 38.928C46.6613 39.133 46.4529 39.2238 46.2244 39.2843C45.5255 39.4724 44.8164 39.6102 44.0973 39.7076C43.5361 39.7849 42.9716 39.8421 42.4071 39.8925C41.94 39.9328 41.4729 39.963 41.0058 39.9664C40.9083 39.9664 40.8075 39.9798 40.7101 39.9765C40.5588 39.9798 40.4043 39.9664 40.2531 39.9832C40.2329 39.9899 40.2127 39.9866 40.1926 39.9866C40.085 39.9866 39.9742 39.9866 39.8666 39.9866C39.8196 39.9866 39.7725 39.9866 39.7255 39.9866C39.6784 39.9866 39.6314 39.9866 39.5877 39.9866C39.5407 39.9866 39.497 39.9866 39.4499 39.9866C39.3659 39.9933 39.2819 39.9731 39.1979 39.9967C38.6098 39.9967 38.0218 39.9967 37.4337 39.9967C37.3362 39.9731 37.2354 39.9899 37.138 39.9866C37.0909 39.9866 37.0439 39.9866 36.9969 39.9866C36.9431 39.9866 36.8893 39.9866 36.8356 39.9866C36.7885 39.9866 36.7415 39.9866 36.6944 39.9866C36.5869 39.9866 36.4794 39.9866 36.3718 39.9866C35.8846 39.9731 35.3973 39.9765 34.9101 39.9496C34.3455 39.9194 33.781 39.8622 33.2164 39.8017C32.5208 39.7244 31.8286 39.6236 31.1431 39.4791C30.844 39.4153 30.5483 39.3414 30.2559 39.2607C29.8393 39.1431 29.6007 38.8373 29.5805 38.4005C29.5771 38.2997 29.5435 38.2324 29.4562 38.1753C29.2377 38.0308 29.1504 37.8057 29.0798 37.5671C29.063 37.5167 29.0496 37.4629 29.0429 37.4125C29.0261 37.3117 28.9756 37.2445 28.8715 37.2042C28.7539 37.1605 28.7001 37.0563 28.7203 36.9521C28.7404 36.8379 28.8177 36.774 28.9488 36.7707C29.0664 36.7673 29.147 36.7169 29.2209 36.6262C29.3554 36.4582 29.4797 36.2767 29.6612 36.149C29.7149 36.112 29.7687 36.0784 29.8325 36.0583C29.9905 36.0011 30.0207 35.9407 29.9905 35.7726C29.9502 35.5441 29.9569 35.319 30.051 35.1006C30.1955 34.7612 30.4441 34.5562 30.8138 34.5058C30.8675 34.4991 30.9179 34.4823 30.965 34.4587C31.1565 34.3646 31.3514 34.3546 31.553 34.4218C31.6673 34.4587 31.7849 34.4957 31.9025 34.526C32.0302 34.5596 32.0403 34.5562 32.0773 34.4251C32.168 34.1193 32.2486 33.8102 32.3394 33.501C32.5981 32.6005 32.8434 31.6965 33.1022 30.796C33.1089 30.7724 33.1123 30.7523 33.119 30.7321C33.119 30.7354 33.1156 30.7254 33.1156 30.7254C32.9174 30.9001 32.7225 31.0782 32.5276 31.253C32.1411 31.5991 31.7614 31.9486 31.375 32.298C31.0994 32.5501 30.8205 32.7987 30.5449 33.0508C30.1551 33.4036 29.7653 33.7564 29.3755 34.1093C29.1134 34.3479 28.8479 34.5831 28.5892 34.825C28.3136 35.0804 28.0314 35.3325 27.7525 35.5879C27.6449 35.6887 27.571 35.6819 27.4971 35.5811C27.4971 35.5509 27.4971 35.5206 27.4971 35.4904C27.5206 35.4501 27.5038 35.4064 27.5072 35.3661C27.5072 35.3224 27.5072 35.2787 27.5072 35.235C27.5072 35.1947 27.5072 35.1577 27.5072 35.1174C27.5072 35.0233 27.5072 34.9292 27.5072 34.8351C27.524 34.2806 27.5307 33.7228 27.5441 33.1684C27.5542 32.7987 27.571 32.4291 27.5878 32.0628C27.6012 31.7133 27.6181 31.3638 27.6315 31.0143C27.6483 30.6447 27.6584 30.2751 27.6785 29.9088C27.6953 29.556 27.7088 29.1998 27.7256 28.8469C27.7424 28.4739 27.7525 28.1009 27.7726 27.7279C27.7894 27.3785 27.8029 27.029 27.8163 26.6795C27.8398 26.1351 27.8634 25.5907 27.8869 25.0464C27.9003 24.6834 27.9138 24.3238 27.9306 23.9609C27.9541 23.4065 27.981 22.852 28.0011 22.2942C28.0112 21.9582 28.0314 21.6255 28.0448 21.2894C28.0683 20.7215 28.0952 20.157 28.1154 19.5891C28.1288 19.2396 28.1389 18.8901 28.1624 18.5406C28.1893 18.1004 28.1759 17.6569 28.2498 17.22C28.3305 16.7462 28.4985 16.3161 28.8748 15.9935C29.0899 15.8087 29.3453 15.7112 29.6175 15.6642C30.1014 15.5869 30.5752 15.6642 31.0389 15.802C31.6606 15.9868 32.2352 16.2724 32.7897 16.6051C33.3878 16.9646 34.0397 17.1831 34.7286 17.2872C34.9537 17.3208 35.1823 17.3209 35.4108 17.3477C35.4813 17.3545 35.525 17.3141 35.562 17.2604C35.8946 16.7698 36.1971 16.2623 36.4222 15.7146C36.681 15.0896 36.8356 14.441 36.9028 13.7689C36.9364 13.4195 36.9599 13.0666 36.8557 12.7239C36.7616 12.4147 36.5499 12.1996 36.2744 12.0484C36.1097 11.9577 35.9417 11.9913 35.7838 12.0854C35.5217 12.2433 35.394 12.1963 35.3604 11.8905C35.3234 11.578 35.394 11.2755 35.5754 11.0101C35.6527 10.8958 35.7804 10.842 35.9115 10.8084C36.2105 10.7311 36.5096 10.7547 36.8087 10.7916C36.9364 10.8084 37.0641 10.832 37.1918 10.8588C37.2556 10.8723 37.3127 10.8689 37.353 10.8084C37.3967 10.7379 37.4774 10.7244 37.5446 10.6942C37.6958 10.6942 37.8504 10.6942 38.0016 10.6942C38.0654 10.7211 38.136 10.7144 38.2032 10.7177C38.6972 10.7614 39.1576 10.9092 39.5911 11.1478C39.8666 11.299 40.0145 11.5578 40.1153 11.8468C40.2195 12.1492 40.2699 12.4651 40.2967 12.7877C40.3404 13.3052 40.3068 13.826 40.3169 14.3435C40.3371 15.2676 40.5084 16.1615 40.8546 17.0184C40.8882 17.1024 40.9352 17.1831 40.9755 17.2637C41.0058 17.3242 41.0562 17.3545 41.1234 17.3511C41.5334 17.3242 41.9433 17.2873 42.3432 17.1864C42.9178 17.042 43.4488 16.7966 43.9562 16.4942C44.6081 16.1044 45.3003 15.8053 46.0531 15.6743C46.3824 15.6172 46.7117 15.607 47.041 15.6843C47.6022 15.812 47.9617 16.1682 48.1634 16.6924C48.2911 17.0184 48.3314 17.3612 48.3516 17.7106C48.3751 18.1542 48.3784 18.6011 48.412 19.0447C48.4255 19.2262 48.4255 19.411 48.4322 19.5924C48.4423 19.8714 48.4524 20.1469 48.4658 20.4259C48.486 20.8627 48.4893 21.2995 48.5263 21.7364C48.5431 21.9245 48.5431 22.1161 48.5465 22.3077C48.5532 22.6 48.57 22.8957 48.5801 23.1881C48.6002 23.756 48.6305 24.3205 48.6506 24.8884C48.6607 25.2177 48.6809 25.5504 48.6943 25.8797C48.7178 26.4443 48.7414 27.0054 48.7649 27.57C48.7783 27.9127 48.7951 28.2555 48.8086 28.5983C48.8321 29.1561 48.8556 29.7173 48.8791 30.2751C48.8926 30.6145 48.906 30.9539 48.9228 31.2899C48.9463 31.7167 48.9497 32.1434 48.9833 32.5668C49.0001 32.7685 48.9968 32.9701 49.0001 33.1717C49.0102 33.659 49.0303 34.1462 49.027 34.6335C49.027 34.6906 49.0438 34.7477 49.0404 34.8049C49.0404 34.9158 49.0404 35.0233 49.0404 35.1342C49.0404 35.1812 49.0404 35.2283 49.0404 35.272C49.0505 35.3291 49.0304 35.3862 49.0572 35.4433Z" fill="#BF9200"/>
<path d="M49.0303 34.8015C49.037 34.8015 49.0471 34.8015 49.0538 34.8015C49.0538 34.9158 49.0538 35.0301 49.0538 35.1443C49.0471 35.1611 49.0404 35.1611 49.0336 35.1409C49.037 35.0301 49.0336 34.9158 49.0303 34.8015Z" fill="#1B1400"/>
<path d="M36.3506 39.9967C36.3506 39.9899 36.3506 39.9798 36.3506 39.9731C36.4648 39.9731 36.5791 39.9765 36.6934 39.9765C36.7102 39.9832 36.7102 39.9899 36.6934 39.9967C36.5791 39.9967 36.4648 39.9967 36.3506 39.9967Z" fill="#1F1700"/>
<path d="M40.1962 39.9731C40.1962 39.9798 40.1962 39.9899 40.1962 39.9967C40.0819 39.9967 39.9677 39.9967 39.8534 39.9967C39.8366 39.9899 39.8366 39.9832 39.8534 39.9765C39.9677 39.9765 40.0819 39.9765 40.1962 39.9731Z" fill="#231B00"/>
<path d="M27.4902 34.825C27.497 34.825 27.507 34.825 27.5138 34.825C27.5138 34.9225 27.5104 35.0233 27.5104 35.1207C27.5037 35.1375 27.497 35.1375 27.4902 35.1207C27.4902 35.0233 27.4902 34.9225 27.4902 34.825Z" fill="#1E1700"/>
<path d="M37.1276 39.9765C37.2284 39.9798 37.3292 39.953 37.4267 39.9967C37.3259 39.9967 37.2284 39.9967 37.1276 39.9967C37.1141 39.9933 37.1108 39.9866 37.1276 39.9765Z" fill="#977400"/>
<path d="M39.1875 39.9967C39.2681 39.953 39.3555 39.9798 39.4395 39.9765C39.453 39.9832 39.453 39.9899 39.4395 39.9967C39.3555 39.9967 39.2715 39.9967 39.1875 39.9967Z" fill="#967200"/>
<path d="M49.058 35.4433C49.0244 35.3929 49.0378 35.3358 49.0378 35.282C49.0445 35.2686 49.0513 35.2719 49.058 35.2854C49.058 35.3358 49.058 35.3895 49.058 35.4433Z" fill="#7D6000"/>
<path d="M36.8284 39.9798C36.8822 39.9798 36.936 39.9798 36.9897 39.9798C37.0065 39.9865 37.0065 39.9933 36.9897 40C36.936 40 36.8822 40 36.8284 40C36.815 39.9933 36.815 39.9865 36.8284 39.9798Z" fill="#5E4800"/>
<path d="M27.5104 35.235C27.5104 35.2821 27.5104 35.3258 27.5104 35.3728C27.507 35.3896 27.5003 35.3896 27.4902 35.3762C27.4902 35.3291 27.4902 35.2854 27.4902 35.2384C27.497 35.2216 27.5037 35.2182 27.5104 35.235Z" fill="#725700"/>
<path d="M49.0573 35.282C49.0506 35.282 49.0438 35.282 49.0371 35.2786C49.0371 35.2316 49.0371 35.1879 49.0371 35.1408C49.0438 35.1408 49.0506 35.1408 49.0573 35.1442C49.0573 35.1912 49.0573 35.2349 49.0573 35.282Z" fill="#503D00"/>
<path d="M36.8292 39.9798C36.8292 39.9865 36.8292 39.9933 36.8292 40C36.7821 40 36.7385 40 36.6914 40C36.6914 39.9933 36.6914 39.9865 36.6914 39.9798C36.7385 39.9798 36.7855 39.9798 36.8292 39.9798Z" fill="#3C2E00"/>
<path d="M36.9902 39.9967C36.9902 39.99 36.9902 39.9832 36.9902 39.9765C37.0373 39.9765 37.081 39.9765 37.128 39.9765C37.128 39.9832 37.128 39.99 37.128 39.9967C37.0843 39.9967 37.0373 39.9967 36.9902 39.9967Z" fill="#7E6000"/>
<path d="M39.4404 39.9967C39.4404 39.99 39.4404 39.9832 39.4404 39.9765C39.4875 39.9765 39.5312 39.9765 39.5782 39.9765C39.5916 39.9832 39.5916 39.99 39.5782 39.9967C39.5345 39.9967 39.4875 39.9967 39.4404 39.9967Z" fill="#765A00"/>
<path d="M39.5771 39.9967C39.5771 39.99 39.5771 39.9832 39.5771 39.9765C39.6242 39.9765 39.6679 39.9765 39.7149 39.9765C39.7284 39.9832 39.7284 39.99 39.7149 39.9967C39.6679 39.9967 39.6242 39.9967 39.5771 39.9967Z" fill="#594400"/>
<path d="M39.7148 39.9967C39.7148 39.99 39.7148 39.9832 39.7148 39.9765C39.7619 39.9765 39.8056 39.9765 39.8526 39.9765C39.8526 39.9832 39.8526 39.99 39.8526 39.9967C39.8056 39.9967 39.7619 39.9967 39.7148 39.9967Z" fill="#3C2E00"/>
<path d="M27.4902 35.3727C27.497 35.3727 27.5037 35.3727 27.5104 35.3694C27.5138 35.4097 27.5205 35.45 27.4902 35.487C27.4902 35.45 27.4902 35.4097 27.4902 35.3727Z" fill="#9E7900"/>
<path d="M27.5104 35.235C27.5037 35.235 27.497 35.235 27.4902 35.235C27.4902 35.198 27.4902 35.1577 27.4902 35.1208C27.497 35.1208 27.5037 35.1208 27.5104 35.1208C27.5104 35.1577 27.5104 35.198 27.5104 35.235Z" fill="#493700"/>
<path d="M35.0225 18.0602C35.5904 18.0971 36.0541 17.8686 36.5346 17.6233C36.4708 17.8988 36.4069 18.161 36.3397 18.4466C36.4573 18.3895 36.5514 18.3458 36.6455 18.2987C36.9715 18.1307 37.2739 17.9224 37.5528 17.6872C37.61 17.6367 37.6436 17.6334 37.6973 17.6939C37.8586 17.872 38.03 18.04 38.1913 18.2181C38.2417 18.2752 38.2719 18.2752 38.319 18.2114C38.4534 18.0265 38.6214 17.8686 38.7794 17.7039C38.8398 17.6401 38.8802 17.63 38.9541 17.6939C39.2733 17.9594 39.643 18.1274 40.0563 18.1946C40.2579 18.2248 40.3184 18.1609 40.2714 17.9627C40.2579 17.9123 40.2445 17.8619 40.231 17.7947C40.557 17.9089 40.8796 17.9526 41.2022 17.9963C41.2963 18.0097 41.3433 17.9829 41.3568 17.8888C41.3635 17.8451 41.3601 17.8182 41.3198 17.7947C41.2459 17.751 41.1854 17.6872 41.1215 17.5998C41.266 17.5897 41.3904 17.5796 41.5181 17.5695C42.422 17.4956 43.252 17.21 44.0249 16.7429C44.6566 16.3631 45.322 16.0641 46.0512 15.9263C46.3368 15.8726 46.6258 15.8557 46.9148 15.9095C47.355 15.9902 47.6743 16.2321 47.8692 16.6354C48.0204 16.9445 48.0809 17.2772 48.101 17.6401C47.9868 17.5695 47.8893 17.509 47.7885 17.4485C47.5802 17.3276 47.3752 17.2032 47.1433 17.126C46.9921 17.0756 46.9854 17.0789 46.9921 17.2335C47.0593 18.8028 47.1232 20.3754 47.1904 21.9447C47.2475 23.3023 47.3046 24.6599 47.3618 26.0175C47.4256 27.5532 47.4928 29.0889 47.56 30.628C47.6104 31.7839 47.6575 32.9399 47.7045 34.0925C47.7045 34.1294 47.7045 34.1664 47.7045 34.2336C47.5835 34.1227 47.4794 34.0253 47.3786 33.9278C47.3382 33.8909 47.3517 33.8337 47.3483 33.7867C47.3113 32.997 47.2777 32.2073 47.2441 31.421C47.1803 29.9895 47.1131 28.5546 47.0492 27.1231C46.9988 26.0242 46.9518 24.9287 46.9047 23.8299C46.8409 22.3816 46.7737 20.9333 46.7065 19.4849C46.6796 18.8969 46.6561 18.3122 46.6292 17.7241C46.6258 17.6166 46.6157 17.5057 46.609 17.3847C46.2864 17.6636 45.984 17.9358 45.6681 18.1912C45.5438 18.292 45.5035 18.3995 45.5102 18.5608C45.6076 20.7014 45.695 22.8453 45.7891 24.9892C45.8496 26.4006 45.9101 27.8086 45.9706 29.2199C46.021 30.3625 46.0714 31.5083 46.1184 32.6509C46.1184 32.6777 46.1319 32.7114 46.1016 32.7517C45.947 32.6072 45.7958 32.466 45.6446 32.3216C45.6211 32.298 45.6278 32.2644 45.6244 32.2342C45.5774 31.1622 45.5303 30.0903 45.4833 29.0217C45.4195 27.5801 45.3522 26.1419 45.2884 24.7003C45.238 23.6048 45.1909 22.5126 45.1439 21.4172C45.1036 20.5435 45.0666 19.6698 45.0263 18.7994C45.0263 18.786 45.0229 18.7692 45.0196 18.7557C44.9826 18.7389 44.9692 18.7726 44.9524 18.786C44.7171 18.9809 44.4853 19.1758 44.2467 19.3707C44.1795 19.4245 44.1593 19.4816 44.1627 19.5656C44.2601 21.9347 44.3576 24.3004 44.4517 26.6694C44.5088 28.0976 44.5659 29.5291 44.6197 30.9573C44.6264 31.0917 44.6331 31.2227 44.6398 31.3907C44.5054 31.2664 44.4013 31.1555 44.2803 31.0614C44.1761 30.9774 44.1391 30.88 44.1358 30.7489C44.0518 28.6789 43.9644 26.6089 43.877 24.539C43.8098 22.9629 43.7426 21.3903 43.6754 19.8143C43.6721 19.7168 43.6553 19.6967 43.5612 19.7437C43.3898 19.8277 43.215 19.9016 43.0403 19.9823C43.0033 19.9991 42.9597 20.026 42.9496 19.952C42.9462 19.9151 42.9261 19.9117 42.8924 19.9184C42.2573 20.0394 41.639 19.8983 41.0241 19.7672C40.3218 19.6193 39.6329 19.4144 38.9911 19.085C38.7525 18.9607 38.524 18.823 38.3627 18.6012C38.3358 18.5642 38.3123 18.5508 38.2719 18.5911C37.9393 18.9473 37.5024 19.122 37.0656 19.2901C36.2255 19.6127 35.3585 19.8344 34.4646 19.942C34.1958 19.9756 33.9236 19.9857 33.6581 19.9218C33.6346 19.9151 33.5943 19.8983 33.5909 19.9352C33.5775 20.0428 33.5204 19.9957 33.47 19.9755C33.2986 19.8983 33.1272 19.8243 32.9592 19.7437C32.8853 19.7067 32.8651 19.7134 32.8617 19.8008C32.8349 20.5334 32.8012 21.2659 32.771 21.9951C32.7038 23.5342 32.64 25.0766 32.5728 26.6156C32.5224 27.7817 32.4753 28.9478 32.4283 30.1138C32.4148 30.4028 32.4014 30.6918 32.3879 30.9841C32.3846 31.0245 32.3778 31.0581 32.3476 31.085C32.2065 31.2127 32.0653 31.3404 31.9208 31.4714C31.8872 31.4277 31.904 31.384 31.904 31.3471C31.9511 30.1239 32.0015 28.9007 32.0485 27.6742C32.1057 26.2393 32.1628 24.8078 32.2233 23.3729C32.2737 22.1094 32.3241 20.8493 32.3778 19.5858C32.3812 19.4816 32.3543 19.4177 32.2737 19.3539C32.025 19.1556 31.773 18.9574 31.521 18.7255C31.5109 18.8935 31.5008 19.038 31.4941 19.1859C31.4369 20.4628 31.3832 21.7398 31.3261 23.0167C31.2555 24.623 31.1815 26.2258 31.1076 27.8321C31.0505 29.1158 30.9934 30.4028 30.9363 31.6864C30.9262 31.8881 30.9161 32.0897 30.9094 32.2913C30.906 32.3552 30.8892 32.4056 30.8354 32.4492C30.6977 32.5669 30.5666 32.6912 30.4087 32.8323C30.4154 32.6946 30.4221 32.5871 30.4255 32.4762C30.4759 31.3067 30.5229 30.134 30.5733 28.9645C30.6439 27.281 30.7178 25.5941 30.7918 23.9106C30.8489 22.5597 30.906 21.2122 30.9631 19.8613C30.9833 19.3841 31.0034 18.907 31.027 18.4331C31.0303 18.3827 31.0337 18.339 30.9866 18.2987C30.6372 17.9997 30.2911 17.6972 29.9281 17.3813C29.9214 17.4654 29.9147 17.5359 29.9113 17.6065C29.824 19.5656 29.7366 21.5247 29.6492 23.4838C29.5753 25.164 29.498 26.8442 29.4207 28.5277C29.3401 30.2919 29.2594 32.0561 29.1821 33.8237C29.1788 33.9211 29.1485 33.9883 29.0746 34.0488C28.9939 34.1126 28.9234 34.1832 28.8259 34.2706C28.8259 34.2067 28.8259 34.1698 28.8259 34.1294C28.8898 32.5736 28.957 31.0177 29.0208 29.4619C29.088 27.8859 29.1519 26.3132 29.2191 24.7372C29.2997 22.8386 29.3804 20.94 29.461 19.0414C29.4879 18.4365 29.5114 17.8283 29.5383 17.2234C29.5451 17.0957 29.5383 17.089 29.414 17.1293C29.1317 17.2201 28.8831 17.3746 28.631 17.5259C28.5739 17.5595 28.5168 17.5964 28.4563 17.6367C28.4261 17.6065 28.4395 17.5763 28.4395 17.5494C28.4529 17.3511 28.4865 17.1562 28.5403 16.9647C28.752 16.2287 29.2695 15.8558 30.039 15.8894C30.6271 15.9129 31.1748 16.0977 31.7091 16.3329C32.0149 16.4707 32.3106 16.6286 32.5996 16.8034C33.4162 17.294 34.3067 17.5527 35.2577 17.5998C35.2879 17.5998 35.335 17.583 35.3518 17.6199C35.3652 17.6535 35.3249 17.6804 35.3047 17.7073C35.2207 17.8081 35.1266 17.9257 35.0225 18.0602Z" fill="#FEFEFE"/>
<path d="M38.1121 39.6336C36.9561 39.637 35.6489 39.5933 34.3417 39.4892C33.1824 39.3951 32.0264 39.264 30.894 38.9885C30.7192 38.9448 30.5445 38.9044 30.3731 38.854C30.1043 38.7734 30.0068 38.6457 29.9867 38.3668C29.98 38.2827 29.9833 38.1987 29.9833 38.1147C29.9833 38.0173 29.9396 37.9467 29.8456 37.9131C29.654 37.8493 29.5465 37.7082 29.4961 37.52C29.4591 37.3856 29.4221 37.2478 29.3785 37.1133C29.365 37.073 29.3684 37.0495 29.402 37.0226C29.5364 36.905 29.6305 36.7572 29.7447 36.6261C29.8556 36.4951 29.9732 36.3976 30.1648 36.4312C30.2622 36.4513 30.3361 36.3741 30.353 36.2733C30.3563 36.2464 30.3563 36.2195 30.3597 36.1926C30.3966 35.7591 30.7562 35.5138 31.1762 35.6281C31.892 35.8263 32.6246 35.9675 33.3538 36.1019C33.4445 36.1187 33.5117 36.1389 33.542 36.2464C33.5688 36.3539 33.6528 36.4345 33.7201 36.5219C33.8074 36.6362 33.878 36.7571 33.878 36.905C33.878 36.9655 33.9049 37.0126 33.9721 37.0126C34.0426 37.0159 34.0763 36.9688 34.0763 36.9016C34.0763 36.7538 34.1536 36.6496 34.2577 36.5589C34.335 36.4917 34.4156 36.4245 34.4694 36.3338C34.4997 36.28 34.5467 36.2934 34.5904 36.3002C35.0676 36.3539 35.5481 36.3875 36.0286 36.3909C36.3579 36.3942 36.6839 36.3808 37.0099 36.3304C37.0401 36.327 37.0704 36.3136 37.0905 36.3505C37.1644 36.4917 37.3022 36.5656 37.4266 36.6563C37.5509 36.7471 37.6786 36.8311 37.6954 37.0058C37.6987 37.0495 37.7357 37.0697 37.776 37.0764C37.8231 37.0831 37.8533 37.0529 37.8802 37.0159C37.9978 36.8445 38.0684 36.653 38.1154 36.448C38.1289 36.3842 38.0953 36.2867 38.2297 36.2968C38.401 36.3069 38.4011 36.3001 38.4347 36.4547C38.475 36.6463 38.5455 36.8277 38.6497 36.9924C38.68 37.0394 38.7102 37.0865 38.7741 37.0764C38.8379 37.0663 38.8547 37.0125 38.8614 36.9588C38.8782 36.8412 38.9656 36.7773 39.0496 36.7101C39.1907 36.5959 39.3655 36.5219 39.4562 36.3505C39.473 36.3203 39.5033 36.3304 39.5268 36.3338C40.2123 36.4346 40.8978 36.3943 41.5833 36.3438C41.7312 36.3338 41.8958 36.2699 42.0235 36.3169C42.1445 36.3606 42.2218 36.5152 42.3327 36.6093C42.4167 36.6832 42.4638 36.7773 42.4671 36.8916C42.4671 36.9588 42.4873 37.0192 42.5679 37.0192C42.6486 37.0192 42.6654 36.9588 42.6687 36.8916C42.6721 36.7538 42.7359 36.6429 42.8166 36.5387C42.9006 36.4278 42.9947 36.3169 43.035 36.1792C43.0585 36.0985 43.1257 36.1187 43.1761 36.112C43.7709 36.0011 44.3657 35.8835 44.9571 35.739C45.0983 35.7054 45.2394 35.6684 45.3772 35.6315C45.7872 35.5138 46.1501 35.7625 46.1904 36.1926C46.2106 36.4043 46.2509 36.4446 46.4592 36.4312C46.5668 36.4245 46.6508 36.4715 46.7247 36.5455C46.8826 36.7 46.9935 36.8983 47.1615 37.0428C47.1884 37.063 47.1817 37.0865 47.1716 37.1133C47.1279 37.2545 47.091 37.399 47.0473 37.5401C46.9935 37.7182 46.8894 37.8493 46.7079 37.9131C46.6071 37.9467 46.5634 38.0207 46.5668 38.1248C46.5668 38.1988 46.5668 38.2693 46.5634 38.3433C46.55 38.6558 46.4424 38.7969 46.14 38.8742C45.8107 38.9582 45.4847 39.0422 45.1487 39.1094C43.9188 39.3514 42.6754 39.469 41.4254 39.5463C40.3702 39.6101 39.3184 39.637 38.1121 39.6336Z" fill="#FEFEFE"/>
<path d="M36.6078 18.1038C36.7086 17.8282 36.7086 17.5594 36.8732 17.3275C37.1387 16.9512 37.2597 16.511 37.384 16.0741C37.5487 15.4894 37.6663 14.8946 37.757 14.2965C37.7637 14.2427 37.7973 14.1822 37.6965 14.1755C37.6192 14.1688 37.5755 14.1621 37.5587 14.2662C37.4478 15.0089 37.3 15.7448 37.0614 16.4606C36.9673 16.7395 36.8598 17.0117 36.6951 17.257C36.6481 17.3242 36.5943 17.3779 36.5204 17.4183C36.1978 17.5964 35.8718 17.7577 35.5123 17.8417C35.4955 17.845 35.4753 17.8484 35.4316 17.8551C35.4753 17.7946 35.5056 17.7543 35.5324 17.714C36.0399 17.0117 36.4969 16.2825 36.7758 15.4592C37.0379 14.6897 37.2026 13.8999 37.1555 13.08C37.1522 13.0027 37.1421 12.9288 37.132 12.8515C37.1152 12.7238 37.1622 12.6667 37.2899 12.66C37.4378 12.6499 37.5856 12.6768 37.7503 12.707C37.5251 12.3105 37.263 11.9711 36.9068 11.709C36.7556 11.5981 36.591 11.5107 36.4061 11.4637C36.1306 11.3898 35.9357 11.457 35.7677 11.6889C35.7173 11.7594 35.6736 11.8333 35.6131 11.9039C35.5761 11.6855 35.5862 11.4637 35.7072 11.2822C35.7845 11.1646 35.9491 11.1512 36.0903 11.131C36.4229 11.084 36.7254 11.1545 36.9841 11.3831C37.132 11.5107 37.2899 11.6216 37.4647 11.7124C37.5352 11.7493 37.6091 11.7964 37.6864 11.7964C37.8276 11.7997 37.9116 11.8636 37.9822 11.9812C38.0527 12.0955 38.2308 12.0988 38.288 11.9812C38.3921 11.7661 38.5769 11.7157 38.7786 11.6788C39.044 11.6284 39.3129 11.588 39.5851 11.6351C39.7195 11.6586 39.8068 11.7157 39.8572 11.8569C40.0118 12.287 40.0589 12.7306 40.079 13.1842C40.0992 13.6479 40.0521 14.115 40.079 14.5788C40.1294 15.4491 40.2941 16.2959 40.6268 17.1058C40.7242 17.3376 40.8418 17.5594 41.0132 17.7845C40.694 17.7375 40.4016 17.6972 40.1429 17.5426C40.0891 17.509 40.0656 17.4485 40.0354 17.3948C39.8304 17.0083 39.7295 16.5916 39.6422 16.1682C39.5246 15.6037 39.454 15.0324 39.4137 14.4578C39.407 14.3805 39.3868 14.3503 39.3028 14.3603C39.2423 14.3671 39.2053 14.3704 39.2121 14.4511C39.2826 15.2744 39.3834 16.0909 39.6187 16.884C39.6959 17.1394 39.7934 17.388 39.9379 17.6165C40.0017 17.7173 40.0286 17.835 40.069 17.9459C40.0925 18.0131 40.0622 18.0164 40.0085 18.0063C39.622 17.929 39.2826 17.7543 38.9903 17.4922C38.9499 17.4552 38.9399 17.4082 38.9331 17.3578C38.8458 16.7899 38.8357 16.2186 38.8189 15.6473C38.8054 15.2071 38.8021 14.7703 38.7987 14.3301C38.7987 14.2427 38.7752 14.2226 38.6878 14.2226C38.5904 14.2192 38.5971 14.2729 38.5971 14.3368C38.6105 15.2138 38.6139 16.0909 38.6845 16.968C38.6979 17.1158 38.7181 17.2637 38.7416 17.4115C38.7483 17.4619 38.7416 17.4955 38.7046 17.5325C38.5635 17.6736 38.4257 17.8148 38.2913 17.9593C38.2544 17.9996 38.2308 18.0063 38.1939 17.9626C38.0662 17.8215 37.9318 17.6837 37.8007 17.5493C37.7671 17.5157 37.7604 17.4821 37.7772 17.4385C37.9956 16.9109 38.0729 16.353 38.1535 15.7919C38.2275 15.2777 38.2678 14.7602 38.3081 14.2427C38.3148 14.1587 38.3048 14.115 38.2039 14.1184C38.1367 14.1218 38.1132 14.1386 38.1098 14.2058C38.0863 14.6359 38.0494 15.066 37.9956 15.4928C37.925 16.0573 37.8444 16.6185 37.6764 17.1629C37.6159 17.3544 37.5151 17.509 37.3504 17.63C37.1185 17.7812 36.8934 17.9526 36.6078 18.1038Z" fill="#FEFEFE"/>
<path d="M42.7878 20.5569C42.6063 23.9374 41.3193 26.7904 38.7553 29.0351C38.6243 29.1494 38.4832 29.2569 38.3521 29.3712C38.2883 29.4249 38.2479 29.4148 38.1875 29.3678C36.7123 28.195 35.5731 26.7602 34.8002 25.043C34.2256 23.7661 33.8862 22.4252 33.782 21.0273C33.7618 20.7484 33.7551 20.4729 33.7585 20.194C33.7585 20.157 33.7417 20.1032 33.8156 20.11C34.3398 20.1604 34.8506 20.0629 35.358 19.9554C36.2015 19.7739 37.0281 19.5353 37.801 19.1388C37.9623 19.0582 38.1135 18.9641 38.2513 18.8465C38.2849 18.8196 38.3084 18.7927 38.3555 18.8364C38.705 19.1657 39.1351 19.3505 39.5753 19.5152C40.3952 19.8176 41.2387 20.0159 42.1056 20.1066C42.3039 20.1268 42.5022 20.1335 42.7004 20.11C42.7676 20.1032 42.7878 20.12 42.7844 20.1872C42.7878 20.3149 42.7878 20.4359 42.7878 20.5569Z" fill="#FEFEFE"/>
<path d="M36.3917 29.146C36.4287 29.1695 36.4287 29.2132 36.4388 29.2468C36.5867 29.7509 36.7311 30.2583 36.879 30.7623C36.8958 30.8195 36.9025 30.8665 36.8655 30.9237C36.6102 31.3067 36.3581 31.6932 36.1028 32.0796C36.096 32.0931 36.0893 32.1065 36.0557 32.1032C36.0019 31.8108 35.9482 31.5117 35.8944 31.216C35.8406 30.927 35.7902 30.638 35.7365 30.349C35.7264 30.2952 35.7163 30.2415 35.6525 30.2247C35.5886 30.2079 35.555 30.2549 35.5214 30.2986C35.2963 30.6044 35.0678 30.9136 34.8426 31.2194C34.8225 31.2463 34.8124 31.2799 34.7653 31.2967C34.6981 31.0614 34.6309 30.8295 34.5671 30.5943C34.5267 30.4565 34.4898 30.3154 34.4494 30.1776C34.4024 30.0096 34.3385 29.9928 34.2176 30.1138C33.9319 30.4062 33.6463 30.6985 33.364 30.9909C33.3405 31.0177 33.3204 31.0581 33.2666 31.0446C33.5018 30.2146 33.7337 29.3846 33.979 28.5244C34.0697 28.7428 34.1436 28.9276 34.2209 29.1124C34.2814 29.2603 34.3352 29.2737 34.4528 29.1628C34.7485 28.8806 35.0442 28.5983 35.3399 28.3194C35.3668 28.2925 35.387 28.2589 35.4374 28.2488C35.4676 28.5311 35.4979 28.81 35.5281 29.0889C35.555 29.3308 35.5785 29.5728 35.6054 29.8181C35.6121 29.8786 35.6121 29.9458 35.6894 29.9626C35.76 29.9794 35.7902 29.9256 35.8238 29.8786C35.9885 29.6635 36.1531 29.4485 36.3178 29.2334C36.338 29.1964 36.3514 29.1595 36.3917 29.146Z" fill="#FEFEFE"/>
<path d="M43.244 31.0446C42.9382 30.7321 42.6324 30.4162 42.3233 30.1037C42.2124 29.9928 42.1418 30.0096 42.1015 30.1575C42.0074 30.4902 41.9133 30.8262 41.8192 31.1589C41.8058 31.2026 41.7923 31.2462 41.7722 31.3101C41.6042 31.0849 41.4496 30.8733 41.295 30.6649C41.2043 30.5406 41.1135 30.4196 41.0228 30.2953C40.9892 30.2516 40.959 30.2045 40.8951 30.2213C40.8313 30.2348 40.8212 30.2885 40.8111 30.3423C40.7036 30.927 40.5994 31.5117 40.4919 32.0964C40.4482 32.1099 40.4448 32.0729 40.4314 32.0528C40.1827 31.6764 39.9374 31.3 39.6887 30.927C39.6619 30.8833 39.6417 30.8464 39.6585 30.7892C39.8164 30.2516 39.971 29.7139 40.1289 29.1763C40.1323 29.1662 40.139 29.1561 40.1424 29.146C40.1894 29.1427 40.1962 29.183 40.2163 29.2098C40.381 29.4249 40.5456 29.64 40.7103 29.8551C40.7472 29.9055 40.7775 29.9727 40.8615 29.9559C40.9455 29.9357 40.9388 29.8584 40.9455 29.7979C40.9959 29.3375 41.043 28.8805 41.09 28.4202C41.0967 28.363 41.1034 28.3059 41.1102 28.2454C41.1606 28.2521 41.1808 28.2891 41.211 28.316C41.5067 28.5983 41.8024 28.8806 42.0981 29.1628C42.209 29.2704 42.2628 29.2569 42.3233 29.1158C42.4006 28.931 42.4778 28.7428 42.5787 28.5546C42.8072 29.3712 43.0357 30.1844 43.2642 31.001C43.2776 31.0245 43.2843 31.048 43.244 31.0446Z" fill="#FEFEFE"/>
<path d="M42.7938 33.501C42.7535 33.4842 42.7434 33.4439 42.7266 33.4137C42.5116 33.0608 42.2999 32.7114 42.0848 32.3585C42.0478 32.298 42.0277 32.2141 41.9336 32.2275C41.8462 32.2409 41.8462 32.3216 41.8227 32.3854C41.7051 32.7416 41.5908 33.0944 41.4732 33.4506C41.4631 33.4842 41.4631 33.5279 41.4194 33.5582C41.2346 33.2726 41.0666 32.9768 40.865 32.708C40.6869 32.4694 40.6432 32.2409 40.7138 31.9486C40.8179 31.5184 40.8784 31.0782 40.9557 30.6447C40.9591 30.6279 40.9658 30.6111 40.9792 30.5708C41.1137 30.7523 41.238 30.9169 41.3589 31.085C41.4732 31.2429 41.5908 31.3975 41.7051 31.5554C41.7387 31.5991 41.7689 31.6461 41.8328 31.6361C41.8966 31.626 41.9101 31.5722 41.9235 31.5184C42.0243 31.1589 42.1251 30.7993 42.2293 30.4398C42.2394 30.4095 42.2394 30.3725 42.2595 30.3557C42.4175 30.507 42.5788 30.6548 42.73 30.8094C42.9249 31.0043 43.1131 31.2025 43.3046 31.3975C43.3382 31.4311 43.3651 31.458 43.3483 31.5151C43.1668 32.1737 42.9887 32.8324 42.8073 33.4876C42.8039 33.4876 42.8006 33.4943 42.7938 33.501Z" fill="#FEFEFE"/>
<path d="M33.7443 33.5044C33.657 33.1785 33.5663 32.8559 33.4789 32.5333C33.3882 32.1972 33.2974 31.8646 33.2067 31.5285C33.1933 31.4815 33.1865 31.4445 33.2269 31.4042C33.5696 31.0547 33.909 30.7052 34.2518 30.3557C34.2585 30.349 34.2719 30.3457 34.2921 30.3322C34.3391 30.4969 34.3862 30.6548 34.4299 30.8161C34.4937 31.048 34.5609 31.2799 34.6248 31.5084C34.6382 31.5621 34.6517 31.6159 34.7189 31.626C34.7827 31.6361 34.813 31.589 34.8466 31.5453C35.0851 31.2227 35.3204 30.9035 35.5657 30.5708C35.6127 30.6279 35.606 30.6918 35.6161 30.7489C35.7102 31.2496 35.8009 31.7537 35.8916 32.2577C35.9017 32.3115 35.9051 32.3585 35.8715 32.4089C35.6329 32.7752 35.3977 33.1449 35.1591 33.5145C35.1524 33.5279 35.1389 33.5347 35.1187 33.5582C35.0549 33.37 34.9978 33.1953 34.9406 33.0205C34.8667 32.7988 34.7961 32.5769 34.7222 32.3585C34.702 32.3014 34.6953 32.2309 34.618 32.2208C34.534 32.2107 34.5105 32.2812 34.4769 32.335C34.2585 32.6946 34.0401 33.0508 33.8216 33.4103C33.8015 33.4439 33.7914 33.4843 33.7443 33.5044Z" fill="#FEFEFE"/>
<path d="M40.5941 32.6375C40.8293 33.0004 41.0478 33.3431 41.2695 33.6859C41.2998 33.7296 41.33 33.7733 41.3569 33.8203C41.3838 33.864 41.414 33.901 41.4745 33.8976C41.535 33.8909 41.5518 33.8438 41.5686 33.7968C41.6862 33.4406 41.8005 33.0878 41.9181 32.7316C41.9349 32.6812 41.9517 32.6307 41.9685 32.5837C42.0122 32.5971 42.0223 32.6341 42.0391 32.661C42.2541 33.0172 42.4692 33.37 42.6876 33.7262C42.7246 33.7867 42.7347 33.8371 42.7145 33.9077C42.6036 34.2605 42.4994 34.6167 42.3919 34.9695C42.3751 35.03 42.3549 35.0771 42.2743 35.0838C42.197 35.0905 42.1567 35.067 42.1197 35.0031C41.9853 34.7645 41.8408 34.5293 41.703 34.2941C41.6761 34.2471 41.6493 34.1967 41.5854 34.2C41.5149 34.2034 41.4981 34.2639 41.4813 34.3176C41.3972 34.5798 41.3065 34.8385 41.2259 35.1006C41.2023 35.1745 41.1687 35.2014 41.0914 35.2048C40.91 35.2081 40.7252 35.2216 40.5437 35.235C40.4832 35.2384 40.4563 35.2249 40.4429 35.1611C40.3858 34.8788 40.3219 34.5965 40.2581 34.3109C40.248 34.2672 40.2547 34.2269 40.2614 34.1866C40.3656 33.6993 40.4664 33.2087 40.5706 32.7215C40.5739 32.6979 40.5807 32.6778 40.5941 32.6375Z" fill="#FEFEFE"/>
<path d="M34.5773 32.5635C34.7084 32.9601 34.8327 33.3398 34.957 33.7195C34.9638 33.7464 34.9738 33.7699 34.9806 33.7968C34.9974 33.8438 35.0142 33.8909 35.0747 33.8976C35.1318 33.9043 35.162 33.864 35.1889 33.8203C35.3805 33.5179 35.5754 33.2188 35.7703 32.9164C35.824 32.829 35.8812 32.745 35.9517 32.6341C35.9853 32.7853 36.0156 32.913 36.0425 33.0407C36.1197 33.4103 36.197 33.78 36.2777 34.1496C36.2911 34.2135 36.2945 34.2739 36.281 34.3411C36.2172 34.61 36.1567 34.8755 36.1029 35.1443C36.0895 35.2216 36.0559 35.235 35.9887 35.2317C35.8072 35.2182 35.6224 35.2048 35.4409 35.2014C35.3704 35.1981 35.3401 35.1745 35.32 35.1073C35.236 34.8419 35.1486 34.5797 35.0612 34.3143C35.0444 34.2605 35.0276 34.2 34.9537 34.1967C34.8898 34.1933 34.863 34.2437 34.8361 34.2907C34.6949 34.5293 34.5504 34.7679 34.416 35.0099C34.3791 35.0737 34.3354 35.0838 34.2682 35.0805C34.1976 35.0737 34.1741 35.0401 34.1539 34.9763C34.0464 34.6133 33.9389 34.2538 33.828 33.8909C33.8112 33.8405 33.8112 33.8001 33.8381 33.7497C34.0699 33.3734 34.2984 32.9936 34.5303 32.6173C34.5404 32.6038 34.5504 32.5938 34.5773 32.5635Z" fill="#FEFEFE"/>
<path d="M38.6832 31.1151C38.6865 31.1353 38.6865 31.1555 38.6899 31.1756C38.7101 31.2126 38.6865 31.2596 38.7067 31.2966C38.7067 31.31 38.7101 31.3235 38.7101 31.3369C38.7336 31.384 38.7 31.4343 38.7302 31.4814C38.7974 31.9619 38.868 32.4391 38.9352 32.9196C39.0091 33.4439 39.0831 33.9681 39.1536 34.4957C39.1603 34.5528 39.1805 34.5931 39.2309 34.6267C39.3855 34.7376 39.5401 34.8485 39.6913 34.9661C39.7451 35.0098 39.7786 35.0064 39.8257 34.956C39.9198 34.8519 40.0173 34.751 40.1382 34.6267C40.1853 34.835 40.2256 35.0131 40.2592 35.1879C40.2693 35.245 40.2189 35.2316 40.1886 35.2316C40.0072 35.2215 39.8223 35.2181 39.6409 35.198C39.4157 35.1711 39.2242 35.2215 39.0696 35.3895C39.0394 35.4231 39.0024 35.4366 38.9587 35.4399C38.7033 35.4702 38.5286 35.6113 38.4513 35.8566C38.4244 35.9372 38.3774 35.9574 38.3102 35.944C38.2295 35.9305 38.1287 35.9876 38.0884 35.8532C38.0145 35.6146 37.8431 35.4735 37.5911 35.4433C37.5373 35.4366 37.5003 35.4097 37.4667 35.3727C37.3323 35.2349 37.1744 35.1778 36.9795 35.1946C36.7778 35.2148 36.5762 35.2215 36.3746 35.2349C36.3007 35.2417 36.2704 35.2248 36.294 35.1408C36.3343 34.9829 36.3645 34.8216 36.4116 34.62C36.5292 34.7477 36.6233 34.8485 36.7174 34.9527C36.7678 35.0098 36.8081 35.0098 36.8686 34.9627C36.9963 34.8619 37.1273 34.7577 37.2651 34.6704C37.3592 34.6099 37.3894 34.5326 37.4062 34.4284C37.5608 33.3162 37.7154 32.2072 37.87 31.0983C37.9305 31.1789 37.8935 31.2663 37.8901 31.3503C37.8565 31.9653 37.8229 32.5836 37.786 33.1985C37.7624 33.6287 37.7355 34.0588 37.7087 34.4889C37.7053 34.5393 37.7187 34.5763 37.749 34.6133C37.9069 34.8115 38.0649 35.0131 38.2228 35.2148C38.2631 35.2685 38.29 35.2752 38.3337 35.2181C38.4916 35.0131 38.6529 34.8082 38.8142 34.6065C38.8579 34.5494 38.8478 34.4923 38.8445 34.4318C38.7941 33.5447 38.7403 32.6575 38.6899 31.7704C38.6899 31.7502 38.6899 31.7334 38.6899 31.7133C38.663 31.599 38.7033 31.478 38.6697 31.3638C38.6664 31.3571 38.6664 31.3504 38.6664 31.3436C38.6597 31.2697 38.616 31.189 38.6832 31.1151Z" fill="black"/>
<path d="M42.8073 22.4588C42.8443 23.1712 42.8779 23.8836 42.9115 24.596C42.9921 26.3031 43.0728 28.0102 43.1534 29.7172C43.1568 29.7542 43.1534 29.7912 43.1534 29.8517C43.103 29.7676 43.0929 29.6937 43.0728 29.6232C42.9451 29.1762 42.8274 28.7259 42.6897 28.2823C42.5989 27.9833 42.6225 27.6775 42.609 27.3751C42.5553 26.2057 42.5149 25.0363 42.4645 23.8635C42.4578 23.7156 42.4712 23.5779 42.5149 23.4367C42.6157 23.1074 42.683 22.7714 42.7569 22.4387C42.7871 22.4219 42.7939 22.4454 42.8073 22.4588Z" fill="#FEFEFE"/>
<path d="M41.7244 25.5201C41.8051 25.8024 41.879 26.0645 41.953 26.3266C42.1243 26.9281 42.2924 27.5297 42.4637 28.1312C42.4805 28.1883 42.4772 28.2387 42.4503 28.2924C42.3663 28.4874 42.2856 28.6856 42.2083 28.8839C42.1848 28.941 42.1646 28.9545 42.1142 28.9041C41.8084 28.6083 41.4993 28.3126 41.1868 28.0169C41.1498 27.98 41.1398 27.9464 41.1465 27.8959C41.2036 27.365 41.2607 26.8341 41.3178 26.3031C41.3212 26.2796 41.3212 26.2561 41.3313 26.2359C41.4556 26.004 41.5867 25.7722 41.7244 25.5201Z" fill="#FEFEFE"/>
<path d="M34.8251 25.537C34.9595 25.7789 35.1006 26.0074 35.2081 26.2494C35.2619 26.3737 35.2518 26.5249 35.2686 26.666C35.3123 27.0726 35.3526 27.4792 35.3963 27.8825C35.403 27.9497 35.3862 27.9967 35.3358 28.0438C35.0367 28.3261 34.7377 28.6083 34.442 28.8973C34.3781 28.9578 34.3579 28.9477 34.3311 28.8738C34.2504 28.6722 34.1664 28.4706 34.0824 28.2723C34.0656 28.2353 34.0622 28.2017 34.0757 28.1648C34.3176 27.3112 34.5562 26.4543 34.7982 25.6008C34.8015 25.5773 34.8116 25.5605 34.8251 25.537Z" fill="#FEFEFE"/>
<path d="M33.4174 29.3242C33.4443 28.7159 33.4678 28.1043 33.498 27.4961C33.5484 26.404 33.6022 25.3118 33.6526 24.2197C33.6795 23.635 33.7131 23.047 33.74 22.4623C33.7568 22.4488 33.7702 22.4488 33.787 22.4623C33.8744 22.8521 33.9618 23.2419 34.076 23.6249C34.0861 23.6619 34.0827 23.7089 34.0827 23.7493C34.029 25.1438 33.9719 26.5384 33.9181 27.933C33.9114 28.1043 33.8576 28.2623 33.8106 28.4236C33.6896 28.857 33.5652 29.2872 33.4409 29.7207C33.4107 29.7207 33.4006 29.7005 33.4039 29.677C33.4174 29.556 33.3939 29.4384 33.4174 29.3242Z" fill="#FEFEFE"/>
<path d="M43.4892 31.7805C43.5867 32.13 43.6808 32.4627 43.7748 32.7954C43.9429 33.3901 44.1075 33.9849 44.2789 34.5764C44.3024 34.6537 44.2924 34.6873 44.2117 34.7007C44.0739 34.7309 43.9361 34.7645 43.8017 34.7981C43.7513 34.8116 43.7177 34.8015 43.6875 34.7544C43.4556 34.4251 43.2204 34.0958 42.9852 33.7665C42.9616 33.7329 42.9516 33.7026 42.965 33.6623C43.133 33.0541 43.2977 32.4425 43.4657 31.8309C43.4657 31.8209 43.4724 31.8108 43.4892 31.7805Z" fill="#FEFEFE"/>
<path d="M33.0754 31.8007C33.1897 32.2208 33.3039 32.6374 33.4182 33.0575C33.4719 33.2524 33.5223 33.4473 33.5795 33.6422C33.5963 33.6993 33.5895 33.7396 33.5526 33.79C33.3241 34.1059 33.0989 34.4218 32.8771 34.741C32.8301 34.8083 32.7864 34.8183 32.7158 34.7981C32.5949 34.7645 32.4739 34.7343 32.3495 34.7075C32.2622 34.6906 32.242 34.6604 32.2689 34.5697C32.4974 33.7665 32.7226 32.9634 32.9477 32.1603C32.9813 32.0393 33.0149 31.9183 33.0519 31.8007C33.0586 31.8007 33.0687 31.8007 33.0754 31.8007Z" fill="#FEFEFE"/>
<path d="M42.5777 35.3055C42.2955 35.2921 42.161 35.3761 42.0535 35.6449C42.0065 35.7659 41.9762 35.8936 41.983 36.0247C41.9863 36.0818 41.9729 36.1154 41.9057 36.1221C41.1395 36.1994 40.37 36.2498 39.6004 36.1557C39.5131 36.1456 39.4459 36.1221 39.4055 36.0314C39.3619 35.9339 39.2678 35.8701 39.1838 35.8062C39.1132 35.7525 39.1065 35.6953 39.1468 35.6181C39.2308 35.4568 39.3888 35.3727 39.5702 35.3929C40.1986 35.4601 40.827 35.4299 41.452 35.366C41.8284 35.3291 42.2014 35.282 42.5744 35.2417C42.5946 35.2585 42.5945 35.282 42.5777 35.3055Z" fill="#FEFEFE"/>
<path d="M34.1066 35.2585C34.4258 35.2921 34.7417 35.3291 35.0609 35.3593C35.7195 35.4232 36.3748 35.4568 37.0368 35.3828C37.1981 35.366 37.3863 35.5072 37.4266 35.6618C37.44 35.7088 37.4266 35.7424 37.393 35.7727C37.2821 35.8701 37.1611 35.9575 37.0973 36.0986C37.0738 36.1456 37.0099 36.1389 36.9629 36.1456C36.5227 36.2095 36.0825 36.1994 35.6389 36.1893C35.3197 36.1793 35.0004 36.149 34.6812 36.1188C34.6005 36.1121 34.5636 36.0919 34.5669 35.9978C34.5736 35.8332 34.5232 35.6752 34.4426 35.5274C34.3451 35.3526 34.2006 35.2686 33.999 35.2955C34.0057 35.2283 34.0696 35.2753 34.1066 35.2585Z" fill="#FEFEFE"/>
<path d="M34.1053 35.2585C34.0683 35.272 34.028 35.2888 33.991 35.3022C33.7189 35.3929 33.5374 35.5643 33.5071 35.86C33.5004 35.9239 33.4668 35.9306 33.4131 35.9205C32.6738 35.7794 31.9311 35.6382 31.2053 35.4366C31.0474 35.3929 31.0339 35.3694 31.0406 35.2081C31.044 35.1544 31.0474 35.0972 31.0306 35.0502C30.9835 34.8922 31.0743 34.7713 31.1448 34.657C31.1919 34.5831 31.3027 34.6066 31.3901 34.6301C31.6858 34.7141 31.9816 34.8082 32.2806 34.8855C32.8552 35.0367 33.4366 35.1544 34.028 35.235C34.0549 35.2417 34.0784 35.2518 34.1053 35.2585Z" fill="#FEFEFE"/>
<path d="M42.5801 35.3055C42.5801 35.282 42.5801 35.2618 42.5801 35.2383C43.0035 35.161 43.4269 35.0904 43.8469 34.993C44.2636 34.8955 44.6736 34.7846 45.0802 34.657C45.0903 34.6536 45.1004 34.6502 45.1138 34.6469C45.3558 34.5729 45.5439 34.7275 45.5204 34.9863C45.5103 35.0904 45.4935 35.1913 45.5137 35.2921C45.5238 35.3458 45.4935 35.366 45.4566 35.3895C45.3725 35.4399 45.2785 35.4601 45.1877 35.4836C44.5157 35.655 43.8369 35.7894 43.1547 35.9205C43.111 35.9272 43.0472 35.9608 43.0404 35.8768C43.0136 35.5777 42.8388 35.4097 42.5801 35.3055Z" fill="#FEFEFE"/>
<path d="M40.7612 29.5963C40.4353 29.1695 40.1227 28.7596 39.8102 28.3529C39.7833 28.3193 39.7867 28.2958 39.8169 28.2656C40.0152 28.0539 40.2067 27.8355 40.3848 27.607C40.4185 27.5633 40.442 27.5734 40.4756 27.607C40.6134 27.7414 40.7545 27.8758 40.8956 28.0102C40.9292 28.0404 40.9359 28.0707 40.9292 28.111C40.8788 28.5848 40.825 29.0586 40.7746 29.5324C40.7746 29.5459 40.7679 29.5593 40.7612 29.5963Z" fill="#FEFEFE"/>
<path d="M35.7787 29.5828C35.7484 29.3174 35.7215 29.062 35.6913 28.8066C35.6678 28.5882 35.6476 28.3664 35.6208 28.148C35.614 28.0808 35.6275 28.0337 35.6779 27.9867C35.8089 27.8691 35.9333 27.7481 36.0576 27.6237C36.1013 27.5834 36.1282 27.5666 36.1719 27.6237C36.3432 27.8422 36.5281 28.0505 36.7162 28.2555C36.7465 28.2891 36.77 28.3126 36.733 28.3597C36.4272 28.7562 36.1214 29.1594 35.8156 29.5559C35.8089 29.566 35.7988 29.5694 35.7787 29.5828Z" fill="#FEFEFE"/>
<path d="M39.502 30.6212C39.4416 30.5742 39.4247 30.5271 39.4113 30.4733C39.3071 29.9995 39.203 29.5291 39.0988 29.0586C39.0853 29.0048 39.0988 28.9679 39.1391 28.9276C39.2836 28.7931 39.4281 28.6587 39.5659 28.5142C39.623 28.4537 39.6499 28.4638 39.6902 28.5243C39.7843 28.6587 39.9322 28.7763 39.9691 28.9208C40.0027 29.0687 39.8986 29.2334 39.8549 29.3913C39.7406 29.8013 39.623 30.2045 39.502 30.6212Z" fill="#FEFEFE"/>
<path d="M37.0407 30.628C36.9231 30.2214 36.8088 29.8282 36.6946 29.435C36.6543 29.2939 36.6139 29.1494 36.5702 29.0083C36.5534 28.9511 36.5568 28.9108 36.5938 28.8604C36.6845 28.7529 36.7685 28.6387 36.8492 28.5244C36.8928 28.4606 36.9197 28.474 36.9701 28.521C37.1113 28.6622 37.2591 28.8033 37.407 28.9411C37.4473 28.978 37.454 29.0116 37.4439 29.0621C37.3398 29.5325 37.2356 30.0063 37.1314 30.4768C37.118 30.5272 37.0978 30.5742 37.0407 30.628Z" fill="#FEFEFE"/>
<path d="M39.6282 31.2025C39.887 31.5923 40.1457 31.9821 40.4045 32.3719C40.4246 32.4022 40.428 32.4358 40.4213 32.4694C40.3339 32.8794 40.2465 33.2894 40.1592 33.696C40.1558 33.706 40.1491 33.7161 40.1323 33.7396C40.0718 33.4607 40.0147 33.202 39.9575 32.9399C39.8399 32.4056 39.7223 31.8713 39.6047 31.3336C39.6013 31.3168 39.6013 31.2966 39.598 31.2765C39.5946 31.2496 39.5644 31.2093 39.6282 31.2025Z" fill="#FEFEFE"/>
<path d="M36.3739 33.6757C36.2933 33.2859 36.2126 32.8961 36.1286 32.503C36.1185 32.4526 36.1118 32.4089 36.1421 32.3618C36.4042 31.9686 36.6629 31.5755 36.925 31.1823C36.9788 31.2025 36.9519 31.2428 36.9452 31.2764C36.8343 31.7905 36.7234 32.3047 36.6125 32.8155C36.5487 33.1179 36.4815 33.417 36.4143 33.7194C36.3672 33.7362 36.3907 33.6892 36.3739 33.6757Z" fill="#FEFEFD"/>
<path d="M42.8585 36.0113C42.8686 36.1356 42.798 36.2398 42.7207 36.3406C42.667 36.4112 42.6099 36.4817 42.5561 36.5523C42.4922 36.4918 42.4317 36.4347 42.3679 36.3742C42.1394 36.1659 42.1192 35.7996 42.3242 35.5643C42.3813 35.4971 42.4519 35.4736 42.5393 35.5005C42.7342 35.561 42.8518 35.7391 42.8585 36.0113Z" fill="#FEFEFD"/>
<path d="M34.3691 36.0146C34.3724 36.1456 34.3187 36.2498 34.2246 36.3372C34.1473 36.4078 34.07 36.4817 33.9893 36.5523C33.9255 36.4683 33.8583 36.3876 33.7978 36.3002C33.6298 36.0717 33.6567 35.7559 33.8583 35.5845C34.0431 35.4299 34.1977 35.4635 34.2951 35.6785C34.3422 35.7861 34.3657 35.897 34.3691 36.0146Z" fill="#FEFEFD"/>
<path d="M33.6565 33.9816C33.7606 34.3311 33.8581 34.6503 33.9555 34.9695C33.9723 35.0199 33.9555 35.0334 33.9085 35.0233C33.6396 34.9729 33.3675 34.9259 33.0986 34.8755C33.0583 34.8687 33.0314 34.8586 33.065 34.8116C33.2532 34.5428 33.4447 34.274 33.6565 33.9816Z" fill="#FEFEFD"/>
<path d="M43.5156 34.862C43.2132 34.9326 42.9275 34.9796 42.6386 35.0267C42.5747 35.0368 42.5814 35.0032 42.5949 34.9595C42.6923 34.6436 42.7864 34.3277 42.8906 33.9816C43.1056 34.2807 43.3073 34.5663 43.5156 34.862Z" fill="#FEFEFD"/>
<path d="M37.8128 36.7539C37.6851 36.5926 37.5272 36.5052 37.386 36.3976C37.2315 36.2834 37.2281 36.1893 37.3692 36.0549C37.423 36.0045 37.4801 35.9608 37.5305 35.9104C37.5809 35.8634 37.6313 35.8096 37.6313 35.7357C37.6347 35.618 37.6918 35.6584 37.7456 35.6953C37.8464 35.7625 37.9002 35.8633 37.9237 35.9776C37.9842 36.2431 37.9203 36.4884 37.8128 36.7539Z" fill="#FEFDFD"/>
<path d="M38.7318 36.7505C38.6108 36.4582 38.5402 36.1759 38.6545 35.8769C38.678 35.8164 38.715 35.7626 38.7654 35.7189C38.8595 35.6416 38.8796 35.645 38.9166 35.7626C38.9469 35.8533 39.0141 35.9138 39.0846 35.9743C39.3535 36.1994 39.3501 36.2667 39.0645 36.4649C38.9469 36.5456 38.836 36.6262 38.7318 36.7505Z" fill="#FEFEFD"/>
<path d="M46.3499 35.5375C46.3465 35.5611 46.3465 35.5879 46.3432 35.6148C46.3398 35.6619 46.3297 35.682 46.2726 35.6551C46.155 35.598 46.0306 35.5476 45.9063 35.4938C45.7316 35.4132 45.6711 35.309 45.698 35.1208C45.7148 35.0133 45.7282 34.9091 45.6912 34.805C45.6677 34.7445 45.7114 34.7512 45.745 34.7545C45.8962 34.7713 46.0206 34.8386 46.1214 34.9495C46.276 35.1141 46.3398 35.3124 46.3499 35.5375Z" fill="#FEFEFD"/>
<path d="M30.8642 34.7646C30.8205 34.8856 30.8306 35.0065 30.8507 35.1308C30.8743 35.2989 30.8138 35.4064 30.6592 35.4803C30.5315 35.5408 30.4004 35.5912 30.2727 35.6517C30.2391 35.6652 30.2156 35.6786 30.2089 35.6316C30.1551 35.2922 30.3836 34.7713 30.8407 34.7545C30.844 34.7545 30.8507 34.7612 30.8642 34.7646Z" fill="#FEFEFD"/>
<path d="M40.9579 27.8019C40.8168 27.6675 40.6958 27.5532 40.5782 27.439C40.5513 27.4121 40.5513 27.3919 40.5749 27.3616C40.7362 27.1365 40.8975 26.9114 41.0789 26.6896C41.0386 27.0491 41.0016 27.4121 40.9579 27.8019Z" fill="#FDFDFD"/>
<path d="M35.4629 26.6627C35.6444 26.918 35.809 27.1432 35.9703 27.3717C35.9938 27.4053 35.977 27.4255 35.9535 27.449C35.8493 27.5498 35.7452 27.6506 35.641 27.7481C35.6141 27.7749 35.5805 27.7951 35.5738 27.7313C35.5368 27.3885 35.5032 27.0424 35.4629 26.6627Z" fill="#FDFDFC"/>
<path d="M35.1374 35.1711C34.9593 35.151 34.798 35.1342 34.6367 35.1174C34.5729 35.1107 34.5964 35.0771 34.6132 35.0468C34.7107 34.8822 34.8081 34.7142 34.9224 34.5226C34.9997 34.7511 35.0669 34.9527 35.1374 35.1711Z" fill="#FDFDFC"/>
<path d="M41.617 34.526C41.7312 34.7209 41.832 34.8923 41.9329 35.0603C41.953 35.0939 41.953 35.1174 41.906 35.1208C41.7447 35.1376 41.5834 35.1544 41.4053 35.1745C41.4758 34.9527 41.5397 34.7545 41.617 34.526Z" fill="#FDFDFC"/>
<path d="M38.2708 11.5678C38.2708 11.6687 38.1901 11.7493 38.0893 11.7493C37.9885 11.7493 37.9079 11.6653 37.9112 11.5645C37.9146 11.4704 37.9919 11.3898 38.0893 11.3898C38.1868 11.3864 38.2708 11.467 38.2708 11.5678Z" fill="#FDFCFA"/>
<path d="M33.4174 29.3241C33.4442 29.4552 33.3905 29.5896 33.4409 29.7173C33.4341 29.7542 33.4241 29.7912 33.4174 29.8315C33.3502 29.7778 33.3938 29.7106 33.3938 29.6467C33.4006 29.5392 33.3871 29.4283 33.4174 29.3241Z" fill="#F4EED8"/>
<path d="M37.8873 31.3471C37.8672 31.2631 37.9075 31.1757 37.8672 31.095C37.8739 31.0278 37.8806 30.9572 37.8907 30.89C37.9546 30.927 37.9109 30.9808 37.9142 31.0278C37.9041 31.132 37.9142 31.2429 37.8873 31.3471Z" fill="#2B2100"/>
<path d="M38.6846 31.1152C38.6443 31.1891 38.6813 31.2698 38.6611 31.3471C38.6342 31.2429 38.6443 31.132 38.6376 31.0278C38.6376 30.9875 38.6006 30.9371 38.6645 30.9102C38.6678 30.9774 38.6779 31.048 38.6846 31.1152Z" fill="#2D2200"/>
<path d="M40.7232 39.953C40.5619 39.9966 40.4006 39.9731 40.2393 39.9731C40.3972 39.9462 40.5619 39.9496 40.7232 39.953Z" fill="#2C2100"/>
<path d="M38.6607 30.9102C38.6305 30.9438 38.6439 30.9875 38.6338 31.0278C38.607 30.9304 38.6171 30.8329 38.6238 30.7355C38.654 30.7892 38.6675 30.8464 38.6607 30.9102Z" fill="#624B00"/>
<path d="M37.909 31.0278C37.8956 30.9841 37.9157 30.9337 37.8855 30.89C37.8788 30.8363 37.8922 30.7859 37.9191 30.7355C37.9258 30.8329 37.9359 30.9304 37.909 31.0278Z" fill="#654D00"/>
<path d="M38.6598 31.3672C38.7068 31.4814 38.68 31.5991 38.68 31.7167C38.6564 31.5991 38.6564 31.4848 38.6598 31.3672Z" fill="#201800"/>
<path d="M33.3946 29.6467C33.4148 29.7072 33.3744 29.7744 33.4181 29.8316C33.4181 29.8584 33.4181 29.882 33.3778 29.8988C33.3711 29.8114 33.3677 29.7274 33.3946 29.6467Z" fill="#DCC475"/>
<path d="M33.7863 22.4588C33.7695 22.4588 33.7561 22.4588 33.7393 22.4588C33.7292 22.4118 33.7325 22.3614 33.746 22.3043C33.7796 22.358 33.7897 22.4084 33.7863 22.4588Z" fill="#F3EBD3"/>
<path d="M42.8063 22.4588C42.7895 22.4521 42.7761 22.4421 42.7593 22.4353C42.7525 22.3849 42.7693 22.3412 42.8063 22.2975C42.8063 22.3513 42.8063 22.4051 42.8063 22.4588Z" fill="#F0E7C8"/>
<path d="M39.6282 31.2026C39.6013 31.2227 39.6047 31.253 39.5979 31.2799C39.5677 31.2362 39.5711 31.1824 39.5576 31.1287C39.6114 31.1387 39.6181 31.1723 39.6282 31.2026Z" fill="#F1E9CD"/>
<path d="M36.9469 31.2798C36.9402 31.2496 36.9335 31.2193 36.9268 31.1857C36.9335 31.1622 36.9368 31.1353 36.9805 31.132C36.9772 31.1858 36.9738 31.2328 36.9469 31.2798Z" fill="#F3ECD4"/>
<path d="M36.3761 33.6758C36.3896 33.6926 36.403 33.706 36.4165 33.7228C36.4165 33.7396 36.4131 33.7598 36.3963 33.7531C36.3627 33.7396 36.3728 33.706 36.3761 33.6758Z" fill="#D5B859"/>
<path d="M38.7303 31.4815C38.6967 31.4378 38.7068 31.3874 38.7101 31.337C38.7336 31.3841 38.7336 31.4311 38.7303 31.4815Z" fill="#201800"/>
<path d="M38.7071 31.2967C38.6802 31.2597 38.6836 31.2194 38.6903 31.1757C38.7104 31.216 38.7104 31.2564 38.7071 31.2967Z" fill="#201800"/>
<path d="M43.2432 31.0446C43.2499 31.0278 43.26 31.0144 43.2667 30.9976C43.2835 31.0211 43.3036 31.048 43.2801 31.0715C43.2667 31.0849 43.2499 31.0614 43.2432 31.0446Z" fill="#E4D195"/>
<path d="M33.1699 30.6817C33.1598 30.6649 33.1497 30.6447 33.1396 30.6279C33.1531 30.6111 33.1699 30.5809 33.1867 30.6044C33.2069 30.6279 33.19 30.6581 33.1699 30.6817Z" fill="#211900"/>
<path d="M41.8901 38.2493C41.88 38.0409 42.1253 37.762 42.337 37.7318C42.4109 37.7217 42.4513 37.7519 42.4681 37.8258C42.4815 37.8998 42.4916 37.9771 42.5252 38.0476C42.5521 38.1048 42.5891 38.1417 42.6596 38.135C42.7302 38.1283 42.7369 38.0779 42.7436 38.0208C42.7604 37.8225 42.8377 37.6578 43.0125 37.5402C43.12 37.4697 43.12 37.4159 43.0259 37.3319C42.9721 37.2848 42.9553 37.2311 42.9822 37.1706C43.0225 37.0866 43.083 37.016 43.1737 36.9857C43.2141 36.9723 43.2342 37.0261 43.251 37.0563C43.2914 37.137 43.3014 37.2244 43.3149 37.3117C43.3283 37.3924 43.3619 37.4428 43.4493 37.4562C43.6408 37.4831 43.7685 37.594 43.8593 37.7654C43.9466 37.9334 44.0676 37.93 44.1651 37.7687C44.1785 37.7452 44.1919 37.7217 44.2054 37.7015C44.37 37.473 44.5078 37.4764 44.6893 37.6276C44.7363 37.6679 44.7767 37.715 44.8405 37.7217C44.8909 37.7284 44.9413 37.7183 44.9749 37.678C45.0119 37.6343 44.9917 37.5974 44.9715 37.5503C44.901 37.3957 44.8674 37.2311 44.8439 37.0664C44.8271 36.9488 44.8136 36.8312 44.7666 36.7203C44.6926 36.5489 44.5582 36.5052 44.4003 36.606C44.2726 36.6867 44.1415 36.6363 44.0978 36.4884C44.0777 36.4145 44.118 36.3607 44.1819 36.3473C44.3364 36.3137 44.4944 36.2734 44.6557 36.3003C44.8607 36.3339 44.9783 36.4649 45.022 36.6598C45.0589 36.8345 45.0858 37.0126 45.1194 37.1874C45.1362 37.2781 45.153 37.3688 45.2034 37.4461C45.2841 37.5738 45.3815 37.5974 45.5126 37.5201C45.5294 37.51 45.5428 37.4999 45.5596 37.4898C45.7041 37.3991 45.8654 37.4495 45.9293 37.6074C45.9595 37.6847 45.8957 37.6881 45.852 37.7049C45.5899 37.799 45.3177 37.8595 45.0488 37.9233C44.9312 37.9502 44.8472 38.004 44.7834 38.0981C44.6926 38.2257 44.5616 38.2661 44.4137 38.2627C44.3499 38.2627 44.2928 38.2459 44.2491 38.1955C44.1919 38.1283 44.118 38.1249 44.0407 38.1485C43.9668 38.172 43.987 38.2392 43.9802 38.2929C43.9668 38.4475 43.8257 38.6256 43.698 38.6492C43.5635 38.676 43.3989 38.5786 43.3182 38.4307C43.2813 38.3602 43.2208 38.3232 43.1435 38.3265C42.9822 38.3333 42.8276 38.3703 42.6697 38.4039C42.6025 38.4173 42.5756 38.471 42.5588 38.5382C42.4983 38.7735 42.2194 38.9348 41.9875 38.8776C41.9674 38.8743 41.9472 38.8709 41.9439 38.8474C41.9405 38.8205 41.9539 38.797 41.9775 38.7802C42.0245 38.7466 42.0816 38.7365 42.1387 38.7231C42.2093 38.7029 42.2631 38.6693 42.3034 38.6088C42.3236 38.5752 42.3303 38.5382 42.3101 38.5013C42.2866 38.4643 42.2496 38.4542 42.2093 38.461C42.169 38.4677 42.1287 38.4778 42.085 38.4845C41.9304 38.508 41.8901 38.4777 41.8867 38.3232C41.8901 38.2963 41.8901 38.2728 41.8901 38.2493Z" fill="#BF9200"/>
<path d="M36.7557 38.6626C36.5944 38.6189 36.4734 38.6727 36.3927 38.8541C36.3356 38.9785 36.2079 39.039 36.0668 39.0625C35.9458 39.0826 35.8248 39.0692 35.7039 39.0389C35.6736 39.0322 35.6367 39.0222 35.6434 38.9852C35.6467 38.9482 35.6803 38.9415 35.7106 38.9348C35.7509 38.9281 35.7946 38.9281 35.8349 38.9247C36.1743 38.9045 36.3423 38.5887 36.1676 38.303C36.1642 38.2963 36.1609 38.2896 36.1575 38.2829C36.0533 38.1216 36.0634 38.0544 36.2079 37.9199C36.2684 37.8662 36.3188 37.8628 36.3625 37.9435C36.4162 38.0443 36.4532 38.1518 36.4902 38.2594C36.5171 38.34 36.5708 38.3803 36.6548 38.3669C36.7321 38.3534 36.7422 38.293 36.7523 38.2224C36.7725 38.1149 36.7523 38.0174 36.7086 37.9233C36.6784 37.8561 36.6918 37.7956 36.7388 37.7452C36.796 37.6881 36.8598 37.6545 36.9438 37.6646C36.9842 37.6713 37.011 37.6914 37.0144 37.7385C37.0278 37.9401 37.0782 37.9704 37.3135 37.9737C37.5924 37.9804 37.8679 38.0006 38.1468 38.014C38.3753 38.0241 38.3854 38.0409 38.372 38.2627C38.3686 38.303 38.372 38.34 38.3955 38.3736C38.4157 38.4072 38.4426 38.4341 38.4862 38.4274C38.5232 38.4206 38.5467 38.3938 38.5535 38.3568C38.6072 38.0443 38.8761 38.0073 39.1113 37.93C39.1819 37.9065 39.2188 37.9569 39.2289 38.0208C39.2524 38.2022 39.2759 38.3837 39.2894 38.5652C39.2961 38.6559 39.2457 38.713 39.1415 38.713C38.9399 38.713 38.7383 38.7231 38.5367 38.7197C38.4392 38.7197 38.3821 38.7567 38.3686 38.8474C38.3384 39.0322 38.1771 39.0625 38.046 39.1163C37.962 39.1499 37.7638 38.9919 37.7369 38.8676C37.71 38.7365 37.626 38.7197 37.5218 38.713C37.2799 38.6996 37.0279 38.6827 36.7557 38.6626Z" fill="#BF9200"/>
<path d="M35.1755 37.2781C35.1788 37.2244 35.1755 37.1706 35.125 37.1202C35.0646 37.0597 35.0847 36.9992 35.1687 36.979C35.2393 36.9622 35.2897 36.9186 35.3502 36.885C35.4174 36.8447 35.4544 36.8749 35.4544 36.9454C35.4544 37.0026 35.4443 37.0597 35.4342 37.1168C35.3637 37.5638 35.3435 38.0208 35.246 38.4643C35.2091 38.6357 35.162 38.7869 34.9671 38.8474C34.7689 38.9079 34.5639 38.7701 34.5807 38.5618C34.5908 38.4442 34.5605 38.4038 34.4395 38.4072C34.3421 38.4106 34.2783 38.3534 34.2581 38.2526C34.2379 38.1485 34.1606 38.1216 34.1001 38.2089C34.0027 38.3467 33.8918 38.3266 33.7607 38.2963C33.67 38.2762 33.5726 38.2762 33.4751 38.2728C33.4045 38.2695 33.3407 38.293 33.297 38.3568C33.166 38.5551 32.9173 38.5887 32.6787 38.4979C32.6552 38.4879 32.635 38.4778 32.635 38.4509C32.6317 38.4139 32.6619 38.4072 32.6888 38.4039C32.7728 38.3938 32.8535 38.377 32.9341 38.3501C33.1156 38.2862 33.2298 38.0141 33.1458 37.8427C33.0719 37.6915 33.0887 37.594 33.2063 37.473C33.2567 37.4226 33.3138 37.4327 33.3508 37.5066C33.4045 37.6209 33.4113 37.7418 33.4247 37.8628C33.4381 37.967 33.4886 38.0275 33.586 38.0409C33.7103 38.0611 33.8447 38.1115 33.9456 37.9805C33.9926 37.92 33.9825 37.8729 33.9187 37.8427C33.8683 37.8192 33.8111 37.8023 33.7574 37.7822C33.6599 37.7452 33.6398 37.6847 33.6969 37.5974C33.754 37.5066 33.8515 37.4764 33.9456 37.4495C34.0128 37.4327 34.0665 37.4058 34.0901 37.3386C34.0901 37.3353 34.0934 37.3319 34.0968 37.3285C34.1707 37.2277 34.2581 37.1202 34.3925 37.1504C34.5202 37.1807 34.574 37.3017 34.584 37.4327C34.5908 37.5066 34.6378 37.547 34.6882 37.5906C34.7487 37.6411 34.8058 37.6915 34.8394 37.7587C34.8966 37.8763 34.8529 37.9502 34.7252 37.9569C34.6882 37.9603 34.6479 37.9603 34.6109 37.967C34.5605 37.9737 34.5068 37.9771 34.5101 38.0477C34.5101 38.1115 34.5403 38.1552 34.6042 38.1754C34.621 38.1787 34.6412 38.1787 34.6613 38.1821C34.789 38.2056 34.8159 38.2392 34.8159 38.3736C34.8159 38.4005 34.8193 38.4274 34.8159 38.4542C34.8125 38.5248 34.8596 38.545 34.9167 38.5517C34.9839 38.5618 35.0041 38.5147 35.0108 38.461C35.0511 38.1921 35.0948 37.9267 35.1217 37.6578C35.1385 37.5234 35.1889 37.4092 35.1755 37.2781Z" fill="#BF9200"/>
<path d="M31.6826 37.5805C31.7733 37.5839 31.8372 37.5469 31.854 37.4494C31.8708 37.352 31.9245 37.2545 31.8338 37.1605C31.7968 37.1235 31.8405 37.1 31.8741 37.0865C31.9615 37.0529 32.0455 37.0193 32.1161 36.9622C32.1362 36.9454 32.1665 36.9387 32.19 36.9555C32.2202 36.9756 32.2135 37.0092 32.2068 37.0395C32.1631 37.2142 32.1262 37.389 32.0724 37.5604C32.0455 37.6477 32.0791 37.6847 32.1497 37.7048C32.237 37.7284 32.3278 37.7485 32.4151 37.7687C32.4689 37.7788 32.5159 37.7687 32.5462 37.7216C32.5932 37.641 32.6302 37.557 32.5832 37.4629C32.5126 37.3218 32.5126 37.3251 32.6672 37.268C32.7243 37.2478 32.7713 37.2075 32.8251 37.1773C32.8554 37.1571 32.8889 37.147 32.9226 37.1672C32.9562 37.1907 32.9562 37.2277 32.9461 37.2613C32.8856 37.4965 32.8251 37.7317 32.7579 37.9669C32.7344 38.051 32.6739 38.0846 32.5798 38.061C32.0825 37.9502 31.5851 37.8325 31.0979 37.678C31.0307 37.6544 30.9567 37.6443 30.8895 37.6242C30.7652 37.5872 30.7349 37.52 30.7786 37.399C30.8626 37.1672 31.034 37.0563 31.2693 37.0328C31.3432 37.026 31.3802 36.9925 31.4003 36.9286C31.4474 36.7807 31.4944 36.6329 31.5381 36.4817C31.5582 36.4111 31.5112 36.3842 31.4507 36.3809C31.4003 36.3775 31.3533 36.401 31.3163 36.438C31.2693 36.4816 31.2155 36.4951 31.1584 36.4749C31.1012 36.4581 31.0475 36.4212 31.0508 36.3573C31.0542 36.2868 31.1113 36.2565 31.1752 36.2464C31.1987 36.2431 31.2222 36.2397 31.2424 36.2464C31.3969 36.3136 31.5314 36.2632 31.6658 36.1927C31.7061 36.1725 31.7498 36.1456 31.7935 36.1826C31.8338 36.2162 31.8237 36.2666 31.8103 36.3103C31.7565 36.4884 31.696 36.6631 31.6423 36.8412C31.5818 37.0294 31.5314 37.2209 31.4675 37.4091C31.4473 37.4763 31.4709 37.5099 31.5213 37.5402C31.5683 37.5704 31.6254 37.5738 31.6826 37.5805Z" fill="#BF9200"/>
<path d="M39.8377 38.7096C39.636 38.713 39.6159 38.6861 39.636 38.5349C39.6562 38.4005 39.6428 38.2594 39.7503 38.1485C39.8074 38.0913 39.8645 38.0376 39.9452 38.014C40.0326 37.9905 40.0628 37.9334 40.0527 37.8527C40.0359 37.7116 40.0157 37.5738 39.9989 37.4327C39.9922 37.3722 39.9586 37.3386 39.9116 37.305C39.8612 37.2714 39.8612 37.2344 39.9049 37.1941C39.9553 37.147 40.0023 37.0967 40.0561 37.0563C40.13 36.9959 40.1838 37.016 40.1972 37.1101C40.2174 37.231 40.2241 37.352 40.2375 37.473C40.2611 37.7183 40.2846 37.967 40.3081 38.2123C40.3148 38.2829 40.3182 38.3669 40.4022 38.3904C40.5064 38.4206 40.6105 38.387 40.6945 38.3366C40.7584 38.2963 40.7147 38.051 40.6442 37.9939C40.5433 37.9166 40.5467 37.883 40.661 37.8158C40.8962 37.6713 40.913 37.6813 40.9298 37.9569C40.9399 38.1014 40.9768 38.2425 40.9903 38.387C41.0071 38.5719 40.997 38.5887 40.8088 38.6122C40.4728 38.6626 40.1266 38.639 39.8377 38.7096Z" fill="#BF9200"/>
<path d="M35.481 38.4139C35.5281 38.0678 35.5785 37.7184 35.6255 37.3722C35.6423 37.2479 35.6524 37.1236 35.6692 36.9992C35.6726 36.9656 35.6793 36.9253 35.7162 36.9119C35.7599 36.8951 35.77 36.9455 35.7902 36.969C35.8507 37.0295 35.9078 37.09 35.9649 37.1471C35.9918 37.174 36.0187 37.2109 35.9784 37.2311C35.8036 37.3285 35.8406 37.5066 35.8171 37.6579C35.7767 37.9166 35.7633 38.1787 35.733 38.4409C35.7196 38.5652 35.6289 38.6089 35.5348 38.5517C35.481 38.5181 35.4709 38.4711 35.481 38.4139Z" fill="#BF9301"/>
<path d="M41.1532 38.9818C41.123 38.9751 41.039 39.0087 41.0256 38.9482C41.0088 38.881 41.0961 38.8776 41.1432 38.8508C41.3045 38.76 41.4221 38.6458 41.4154 38.4408C41.412 38.3064 41.3549 38.2156 41.2406 38.1585C41.16 38.1182 41.1398 38.0678 41.1902 37.9838C41.2305 37.92 41.2608 37.8494 41.2944 37.7821C41.328 37.7149 41.3784 37.7082 41.4187 37.7654C41.5699 37.9972 41.7044 38.2358 41.7077 38.5315C41.7077 38.7667 41.3952 39.0053 41.1532 38.9818Z" fill="#BF9201"/>
<path d="M40.0759 39.0826C40.0053 39.086 39.9684 39.0423 39.9381 38.9919C39.9112 38.9449 39.9247 38.9045 39.9583 38.8675C39.9986 38.8205 40.0457 38.7903 40.1095 38.8104C40.1431 38.8205 40.1734 38.8373 40.2036 38.8507C40.2675 38.881 40.3212 38.9011 40.3817 38.8306C40.4355 38.7667 40.5564 38.7802 40.5934 38.844C40.6304 38.9146 40.6371 38.9919 40.5598 39.049C40.4825 39.1061 40.4086 39.0893 40.3649 39.012C40.3313 38.9549 40.3078 38.9751 40.2674 38.9919C40.1969 39.0154 40.1566 39.0927 40.0759 39.0826Z" fill="#C09302"/>
<path d="M45.3778 38.2392C45.2938 38.2392 45.2199 38.2224 45.2132 38.1216C45.2065 38.0443 45.3207 37.9569 45.4182 37.9536C45.482 37.9536 45.5559 38.0376 45.5526 38.1115C45.5492 38.1854 45.4753 38.2392 45.3778 38.2392Z" fill="#C09303"/>
<path d="M31.1029 36.8546C31.0323 36.8446 30.9684 36.8177 30.9718 36.7236C30.9752 36.6396 31.0189 36.569 31.1062 36.5657C31.1869 36.5623 31.2474 36.6228 31.2675 36.7001C31.281 36.7706 31.1902 36.8546 31.1029 36.8546Z" fill="#C09506"/>
<path d="M39.6372 37.8494C39.5464 37.8359 39.5027 37.7821 39.5095 37.6914C39.5162 37.6007 39.5901 37.5637 39.6573 37.5671C39.7279 37.5738 39.8085 37.6108 39.8052 37.7082C39.8052 37.7822 39.7144 37.8561 39.6372 37.8494Z" fill="#C09405"/>
<path d="M39.6155 37.4629C39.5315 37.4697 39.4878 37.4226 39.4744 37.3453C39.4643 37.2849 39.5584 37.1907 39.6155 37.1907C39.6827 37.1907 39.7701 37.268 39.7701 37.3319C39.7634 37.4293 39.7029 37.4629 39.6155 37.4629Z" fill="#C09405"/>
<path d="M32.207 38.3937C32.1096 38.387 32.0524 38.3467 32.0558 38.2526C32.0592 38.1585 32.1331 38.1316 32.207 38.135C32.2843 38.1383 32.3482 38.1854 32.3482 38.2694C32.3448 38.3568 32.2742 38.387 32.207 38.3937Z" fill="#C09506"/>
<path d="M31.1389 38.0981C31.0649 38.088 31.0112 38.0443 30.9977 37.9704C30.9877 37.92 31.0952 37.8124 31.149 37.8225C31.2262 37.8359 31.2867 37.8897 31.2867 37.967C31.2834 38.0477 31.2162 38.088 31.1389 38.0981Z" fill="#C19506"/>
<path d="M31.6807 38.0577C31.684 38.1585 31.6269 38.1954 31.5462 38.1954C31.4656 38.1954 31.4185 38.1451 31.4152 38.0678C31.4118 37.9804 31.4656 37.9501 31.5496 37.9535C31.6235 37.9535 31.6874 37.967 31.6807 38.0577Z" fill="#C19507"/>
<path d="M42.5383 20.8762C42.3098 24.045 41.0429 26.7434 38.5865 28.8571C38.5092 28.9243 38.4252 28.9847 38.3479 29.0553C38.2941 29.1057 38.2538 29.1057 38.1933 29.0587C36.3686 27.5835 35.1186 25.7252 34.4566 23.4704C34.1676 22.4891 34.013 21.4844 34.0029 20.4595C34.0029 20.3553 34.0197 20.3284 34.134 20.3419C34.3927 20.3721 34.6515 20.3251 34.9069 20.2847C35.8545 20.1335 36.7786 19.8882 37.6557 19.4883C37.8606 19.3942 38.0589 19.2867 38.2404 19.1523C38.2773 19.1254 38.3076 19.1019 38.358 19.1422C38.7713 19.485 39.2586 19.6799 39.7592 19.8479C40.5187 20.1033 41.2949 20.278 42.0913 20.3385C42.1989 20.3486 42.3064 20.3553 42.4106 20.3452C42.5248 20.3318 42.545 20.3788 42.5383 20.4763C42.5315 20.5939 42.5383 20.7149 42.5383 20.8762Z" fill="#BF9200"/>
<path d="M41.3993 35.8399C41.2716 35.8399 41.1405 35.8399 41.0128 35.8399C40.9691 35.8399 40.9254 35.8398 40.912 35.7894C40.8986 35.739 40.9355 35.7121 40.9725 35.6886C41.0195 35.655 41.0733 35.6382 41.1304 35.6281C41.3589 35.5845 41.5841 35.5979 41.8025 35.6819C41.8495 35.6987 41.9168 35.7155 41.9 35.7861C41.8832 35.86 41.8193 35.8399 41.7689 35.8399C41.6412 35.8399 41.5202 35.8399 41.3993 35.8399Z" fill="#BF9302"/>
<path d="M39.9139 35.6988C40.0315 35.7122 40.1592 35.7223 40.2869 35.7391C40.3541 35.7492 40.4213 35.766 40.4818 35.7996C40.5188 35.8198 40.5557 35.8432 40.5457 35.8936C40.5322 35.9474 40.4885 35.9474 40.4449 35.9441C40.176 35.9105 39.9106 35.8769 39.6417 35.8399C39.5947 35.8332 39.5476 35.8197 39.5544 35.7592C39.5611 35.7088 39.6048 35.6988 39.6485 35.6988C39.7358 35.6988 39.8198 35.6988 39.9139 35.6988Z" fill="#C09303"/>
<path d="M35.1391 35.8399C35.0148 35.8399 34.8871 35.8399 34.7628 35.8399C34.7191 35.8399 34.6653 35.8466 34.6519 35.7861C34.6384 35.729 34.6821 35.7055 34.7258 35.6887C34.9711 35.5912 35.2198 35.5711 35.4718 35.6416C35.5088 35.6517 35.5424 35.6685 35.576 35.6887C35.613 35.7088 35.6499 35.7357 35.6365 35.7861C35.623 35.8399 35.5794 35.8399 35.5357 35.8399C35.4046 35.8399 35.2702 35.8399 35.1391 35.8399Z" fill="#BF9302"/>
<path d="M36.6537 35.6988C36.7344 35.6988 36.8117 35.6988 36.8923 35.6988C36.9394 35.6988 36.9797 35.7088 36.9864 35.7626C36.9932 35.8164 36.9528 35.8366 36.9091 35.8399C36.6369 35.8769 36.3681 35.9105 36.0959 35.9441C36.0522 35.9508 36.0086 35.9441 35.9951 35.8936C35.985 35.85 36.0153 35.8231 36.0522 35.8063C36.1631 35.7458 36.2841 35.7357 36.4051 35.7223C36.4891 35.7122 36.5731 35.7122 36.6537 35.7055C36.6537 35.7021 36.6537 35.7021 36.6537 35.6988Z" fill="#C09303"/>
<path d="M32.5512 35.2182C32.8234 35.2618 33.0955 35.3291 33.3543 35.4467C33.398 35.4668 33.4417 35.4904 33.4215 35.5475C33.4013 35.608 33.3543 35.5945 33.3072 35.5811C33.0451 35.5072 32.7797 35.4332 32.5175 35.3593C32.4705 35.3459 32.4235 35.3291 32.4369 35.2686C32.447 35.2081 32.4974 35.2148 32.5512 35.2182Z" fill="#C09303"/>
<path d="M31.3473 34.8418C31.5489 34.8586 31.7405 34.9057 31.9186 34.9964C31.9589 35.0166 31.9958 35.0434 32.0328 35.0737C32.0664 35.1006 32.0933 35.1342 32.0698 35.1812C32.0429 35.2316 31.9992 35.2182 31.9589 35.2047C31.8278 35.1611 31.7001 35.1174 31.5691 35.0737C31.4851 35.0468 31.4044 35.0199 31.3204 34.9897C31.27 34.9729 31.2062 34.9661 31.2196 34.8922C31.233 34.8216 31.3002 34.8485 31.3473 34.8418Z" fill="#BF9302"/>
<path d="M43.9964 35.2181C44.0603 35.2148 44.1006 35.2215 44.1106 35.2686C44.1241 35.3223 44.0871 35.3425 44.0435 35.3559C43.7679 35.4332 43.4957 35.5105 43.2202 35.5878C43.1798 35.5979 43.1429 35.5945 43.1261 35.5508C43.1093 35.5071 43.1294 35.4769 43.1697 35.4568C43.4386 35.3257 43.7242 35.2585 43.9964 35.2181Z" fill="#C09303"/>
<path d="M45.1876 34.8417C45.2481 34.8451 45.3153 34.8216 45.3288 34.8955C45.3422 34.9695 45.275 34.9762 45.2246 34.993C45.023 35.0602 44.8213 35.1274 44.6164 35.1946C44.566 35.2114 44.5088 35.245 44.4786 35.1744C44.4517 35.1106 44.5088 35.077 44.5525 35.0501C44.7474 34.9224 44.9658 34.8653 45.1876 34.8417Z" fill="#C09302"/>
<path d="M43.4716 37.7553C43.5422 37.7553 43.6564 37.8561 43.6564 37.9166C43.6564 37.9973 43.5859 38.0006 43.5355 38.0107C43.4683 38.0208 43.4011 37.93 43.4044 37.8393C43.4044 37.7923 43.4279 37.762 43.4716 37.7553Z" fill="#FCFAF6"/>
<path d="M43.1068 38.0678C43.0328 38.0745 42.9959 38.0443 42.9992 37.9636C43.0026 37.893 43.0261 37.8258 43.1034 37.8292C43.1807 37.8326 43.1908 37.9065 43.1975 37.9737C43.2009 38.0376 43.1807 38.0745 43.1068 38.0678Z" fill="#FBF9F4"/>
<path d="M44.477 37.8023C44.5442 37.8057 44.5946 37.8326 44.5946 37.8998C44.5946 37.9704 44.5274 37.9939 44.4736 37.9972C44.4165 38.0006 44.3594 37.967 44.3594 37.8998C44.3594 37.8292 44.4232 37.8158 44.477 37.8023Z" fill="#FBF9F3"/>
<path d="M42.2015 38.2156C42.1611 38.2156 42.1074 38.2123 42.1174 38.1619C42.1275 38.1047 42.1578 38.0409 42.2351 38.0443C42.2888 38.0443 42.3191 38.0846 42.3157 38.1384C42.3124 38.2056 42.2519 38.2123 42.2015 38.2156Z" fill="#FAF8F0"/>
<path d="M43.6377 38.35C43.6007 38.34 43.5369 38.3534 43.547 38.2963C43.5537 38.2358 43.6209 38.2291 43.6747 38.2291C43.7183 38.2257 43.7654 38.2425 43.7587 38.2963C43.7486 38.3601 43.6847 38.3467 43.6377 38.35Z" fill="#F8F4E7"/>
<path d="M38.1285 38.545C38.1285 38.5954 38.1285 38.6458 38.1285 38.6928C38.1285 38.7332 38.1184 38.7735 38.0747 38.7835C38.0243 38.7936 37.9874 38.76 37.9672 38.7164C37.9571 38.6962 37.9571 38.6727 37.9571 38.6492C37.9538 38.4677 37.9571 38.4677 37.7723 38.461C37.5774 38.4542 37.3825 38.4509 37.191 38.4341C37.1271 38.4274 37.0061 38.4408 37.0162 38.3333C37.0263 38.2392 37.1305 38.2325 37.2111 38.2358C37.4766 38.2459 37.7421 38.266 38.0075 38.2795C38.0949 38.2828 38.1419 38.3265 38.1319 38.4173C38.1251 38.461 38.1285 38.5013 38.1285 38.545Z" fill="#FDFDFC"/>
<path d="M38.9097 38.4576C38.866 38.4509 38.8122 38.4543 38.8189 38.3938C38.829 38.3266 38.8862 38.2896 38.9433 38.2829C39.0172 38.2728 39.0105 38.3467 39.0138 38.387C39.0273 38.4677 38.9466 38.4341 38.9097 38.4576Z" fill="#FBF9F3"/>
<path d="M34.3379 37.7788C34.2471 37.772 34.1665 37.762 34.1262 37.678C34.1194 37.6612 34.3009 37.5032 34.3211 37.5133C34.4084 37.5536 34.3782 37.6645 34.442 37.7284C34.4689 37.7553 34.3715 37.7653 34.3379 37.7788Z" fill="#FBFAF4"/>
<path d="M31.2646 37.3251C31.2478 37.3655 31.2209 37.3924 31.1738 37.3924C31.1436 37.3924 31.1033 37.389 31.1066 37.3487C31.1134 37.2949 31.1671 37.2882 31.2074 37.2814C31.2343 37.2747 31.2578 37.2882 31.2646 37.3251Z" fill="#F7F2E1"/>
<path d="M39.9977 38.2997C40.0515 38.2963 40.0582 38.3332 40.0582 38.3736C40.0582 38.4475 39.9977 38.4408 39.954 38.4442C39.917 38.4475 39.8868 38.424 39.8935 38.3837C39.9036 38.3299 39.9406 38.2997 39.9977 38.2997Z" fill="#F9F6EC"/>
<path d="M36.8586 19.9385C36.9594 19.8713 37.077 19.8512 37.1879 19.8075C37.5576 19.663 37.9205 19.5084 38.2498 19.2766C38.2901 19.2463 38.3204 19.2497 38.3607 19.2799C38.7236 19.5622 39.1403 19.7436 39.5671 19.8949C39.6477 19.9217 39.678 19.9587 39.678 20.0494C39.6746 22.5361 39.6746 25.0262 39.678 27.5128C39.678 27.5969 39.6544 27.6641 39.5973 27.7279C39.2075 28.1513 38.7875 28.5478 38.3405 28.9108C38.2968 28.9444 38.2666 28.9645 38.2162 28.9208C37.7457 28.5377 37.3055 28.1211 36.8989 27.6674C36.8855 27.6506 36.8721 27.6304 36.862 27.6103C36.8049 27.5296 36.8082 27.4389 36.8082 27.3482C36.8082 26.7299 36.8082 26.1116 36.8082 25.4933C36.8082 23.7223 36.8082 21.9548 36.8082 20.1838C36.8015 20.0998 36.778 20.0058 36.8586 19.9385Z" fill="#FEFEFE"/>
<path d="M36.8584 19.9385C36.8584 22.4958 36.8584 25.053 36.8584 27.6103C36.6265 27.3817 36.435 27.123 36.2434 26.8609C35.2017 25.4361 34.5532 23.8466 34.2642 22.1093C34.1802 21.6019 34.1298 21.0878 34.123 20.5737C34.123 20.4728 34.1533 20.446 34.2541 20.446C34.7716 20.4493 35.2757 20.3418 35.7797 20.2275C36.109 20.1536 36.4316 20.0629 36.7509 19.9587C36.7811 19.9486 36.8214 19.9453 36.8584 19.9385Z" fill="#CD1126"/>
<path d="M39.6875 27.5767C39.6875 27.5364 39.6875 27.4961 39.6875 27.4557C39.6875 24.9993 39.6875 22.5429 39.6875 20.0831C39.6875 19.942 39.6875 19.942 39.8186 19.9856C40.5007 20.2041 41.1929 20.362 41.9053 20.4326C42.0431 20.446 42.1809 20.4527 42.3153 20.4494C42.406 20.446 42.4228 20.4796 42.4228 20.5602C42.4128 21.2525 42.3288 21.938 42.1843 22.6134C41.7978 24.418 41.0249 26.0377 39.832 27.449C39.7917 27.4961 39.7514 27.5398 39.7144 27.5868C39.7043 27.5834 39.6942 27.5801 39.6875 27.5767Z" fill="black"/>
</svg>
