<svg width="24" height="24" viewBox="0 0 24 24" fill="none" xmlns="http://www.w3.org/2000/svg">
<path fill-rule="evenodd" clip-rule="evenodd" d="M13.0972 2.25L13.25 2.25001V4.80011V4.83054C13.25 5.36469 13.25 5.81054 13.2797 6.17478C13.3108 6.55466 13.3779 6.91132 13.5497 7.24858C13.8134 7.76603 14.2341 8.18672 14.7515 8.45037C15.0888 8.62222 15.4454 8.68933 15.8253 8.72037C16.1896 8.75013 16.6354 8.75012 17.1696 8.75011H17.2H19.75L19.75 8.90277V8.90278L19.75 8.98824V16.2V16.2321C19.75 17.045 19.75 17.7006 19.7066 18.2315C19.662 18.7781 19.5676 19.2583 19.3413 19.7025C18.9817 20.4081 18.4081 20.9818 17.7025 21.3413C17.2582 21.5676 16.7781 21.662 16.2315 21.7067C15.7006 21.75 15.045 21.75 14.2321 21.75H14.2H9.8H9.76788C8.95505 21.75 8.29944 21.75 7.76853 21.7067C7.2219 21.662 6.74176 21.5676 6.29754 21.3413C5.59193 20.9818 5.01825 20.4081 4.65873 19.7025C4.43239 19.2583 4.33803 18.7781 4.29336 18.2315C4.24999 17.7006 4.24999 17.045 4.25 16.2322V16.2321V16.2321V16.2V7.80002V7.76791V7.7679V7.76788C4.24999 6.95506 4.24999 6.29945 4.29336 5.76855C4.33803 5.22191 4.43239 4.74177 4.65873 4.29755C5.01825 3.59194 5.59193 3.01827 6.29754 2.65874C6.74176 2.4324 7.2219 2.33804 7.76853 2.29338C8.29944 2.25 8.95506 2.25001 9.7679 2.25002L9.8 2.25002H13.0118L13.0972 2.25ZM19.1974 6.28329C19.3819 6.58441 19.5229 6.90992 19.6163 7.25011H17.2C16.6276 7.25011 16.2434 7.24952 15.9475 7.22535C15.6604 7.20189 15.5231 7.16001 15.4325 7.11386C15.1973 6.99402 15.0061 6.8028 14.8862 6.56759C14.8401 6.47703 14.7982 6.33975 14.7748 6.05263C14.7506 5.75675 14.75 5.37253 14.75 4.80011V2.38378C15.0902 2.47715 15.4156 2.6181 15.7167 2.80262C16.0964 3.03527 16.4152 3.35427 16.8758 3.81513L16.8758 3.81513L16.9362 3.87557L18.1244 5.0638L18.1849 5.12423C18.6457 5.58481 18.9647 5.90363 19.1974 6.28329ZM15.5303 12.5304C15.8232 12.2375 15.8232 11.7627 15.5303 11.4698C15.2374 11.1769 14.7626 11.1769 14.4697 11.4698L11 14.9394L10.0303 13.9698C9.73743 13.6769 9.26256 13.6769 8.96966 13.9698C8.67677 14.2627 8.67677 14.7375 8.96966 15.0304L10.4697 16.5304C10.6103 16.6711 10.8011 16.7501 11 16.7501C11.1989 16.7501 11.3897 16.6711 11.5303 16.5304L15.5303 12.5304Z" fill="#232323"/>
</svg>
